<svg width="50" height="52" fill="none" xmlns="http://www.w3.org/2000/svg"><path d="M48.25 13.083V10.5a5.166 5.166 0 00-5.167-5.167h-7.75l6.459 3.875m6.458 29.709V41.5a5.166 5.166 0 01-5.167 5.167h-7.75l6.459-3.875M17.252 26h-.002m18.083 0H48.25m0 0l-5.167-5.167M48.25 26l-5.167 5.167M5.431 45.189l15.5 4.65a5.167 5.167 0 006.652-4.95V7.111a5.166 5.166 0 00-6.652-4.95l-15.5 4.65a5.167 5.167 0 00-3.681 4.95v28.478a5.167 5.167 0 003.681 4.95z" stroke="#E8B0B0" stroke-width="3" stroke-linecap="round" stroke-linejoin="round"/></svg>