<svg width="118" height="35" fill="none" xmlns="http://www.w3.org/2000/svg"><path d="M10.692.031h2.956L7.453 13.334H6.195L0 .03h2.925l3.899 8.68 3.9-8.68h-.032zm11.667 13.271h-2.705V0h2.705v13.302zM39.686 2.359h-4.245v10.943h-2.705V2.359h-4.213V.03h11.195v2.33h-.032zM53.24 10.63h-5.944l-1.195 2.704h-2.862L49.592.03h1.352l6.352 13.303h-2.862l-1.195-2.705zm-4.97-2.234h4.026l-2.013-4.402-2.012 4.402zm24.498 2.642v2.264h-9.529V0h2.705v11.038h6.855-.031zm8.868 2.264h-2.704V0h2.704v13.302zM98.963 2.359h-4.245v10.943h-2.705V2.359H87.8V.03h11.195v2.33h-.031zM117.328.031l-5.126 8.774v4.497h-2.704V8.805L104.403.031h3.082l3.396 5.85 3.365-5.85h3.082zM21.07 30.692l2.107 1.76c-1.29 1.542-3.271 2.517-5.504 2.517-3.868 0-7.012-3.05-7.012-6.793 0-3.742 3.144-6.824 7.012-6.824 2.233 0 4.183 1.006 5.504 2.547L21.07 25.66a4.17 4.17 0 00-3.397-1.76c-2.327 0-4.214 1.697-4.214 4.245 0 2.547 1.919 4.245 4.214 4.245a4.17 4.17 0 003.397-1.761v.063zm19.937-9.151l-5.126 8.774v4.497h-2.705v-4.497l-5.094-8.774h3.082l3.396 5.85 3.365-5.85h3.082zm14.811 9.151l2.107 1.76c-1.29 1.542-3.27 2.517-5.503 2.517-3.868 0-7.013-3.05-7.013-6.793 0-3.742 3.145-6.824 7.013-6.824 2.233 0 4.182 1.006 5.503 2.547l-2.107 1.761a4.17 4.17 0 00-3.396-1.76c-2.327 0-4.214 1.697-4.214 4.245 0 2.547 1.918 4.245 4.214 4.245a4.17 4.17 0 003.396-1.761v.063zm17.988 1.887v2.264h-9.529V21.541h2.705v11.038h6.855-.031zm16.321-.095v2.327h-10.19V21.51h9.812v2.327h-7.17v3.365h6.007v2.264h-6.007v2.988h7.58l-.032.031zm16.54-1.572c0 2.578-2.044 4.088-5.157 4.088-2.264 0-3.428-.22-5.534-1.258l.974-2.107c1.761.85 2.988 1.006 4.655 1.006 1.446 0 2.327-.534 2.327-1.509 0-.912-.881-1.29-2.831-1.761-2.736-.629-4.937-1.384-4.937-4.025 0-2.327 1.856-3.994 4.906-3.994 2.013 0 3.805.503 5.094 1.07l-1.1 2.138c-1.164-.503-2.799-.88-4.057-.88-1.352 0-2.107.597-2.107 1.446 0 .943.944 1.352 2.956 1.792 2.862.63 4.843 1.541 4.843 3.994h-.032z" fill="#45504B"/></svg>