<svg width="28" height="28" fill="none" xmlns="http://www.w3.org/2000/svg"><path d="M19.444 9.333V7.04a5.445 5.445 0 10-10.888 0v5.444a.778.778 0 001.555 0V10.89h6.222V9.333h-6.222V7.04a3.889 3.889 0 117.778 0v5.405a.778.778 0 101.555 0V10.89h3.89v14H4.666v-14H7V9.333H3.111V24.96a1.486 1.486 0 001.486 1.486h18.806a1.486 1.486 0 001.486-1.486V9.333h-5.445z" fill="#3D3D3D"/><path d="M13.953 22.099c-.624 0-1.14-.143-1.551-.429-.404-.286-.704-.715-.902-1.287-.191-.572-.286-1.29-.286-2.156 0-.895.102-1.635.308-2.222.205-.594.524-1.038.957-1.331.432-.3.975-.451 1.628-.451.638 0 1.15.136 1.54.407.396.271.682.686.858 1.243.183.557.275 1.265.275 2.123 0 .91-.103 1.668-.308 2.277-.206.609-.521 1.067-.946 1.375-.418.3-.943.451-1.573.451zm.033-.704c.425 0 .773-.121 1.045-.363.27-.242.473-.605.605-1.089.132-.491.201-1.111.209-1.859.007-.777-.055-1.393-.187-1.848-.132-.462-.33-.796-.594-1.001-.264-.205-.594-.308-.99-.308-.44 0-.803.121-1.09.363-.285.235-.498.594-.637 1.078-.132.477-.198 1.082-.198 1.815 0 .733.066 1.338.198 1.815.132.47.333.821.605 1.056.27.227.616.341 1.034.341z" fill="#3D3D3D"/></svg>