<svg width="17" height="12" fill="none" xmlns="http://www.w3.org/2000/svg"><path d="M10.046 10.435c.204 0 .4.082.546.229a.788.788 0 010 1.107.768.768 0 01-.546.229H6.955a.768.768 0 01-.547-.23.788.788 0 010-1.106.768.768 0 01.547-.23h3.09zm3.09-5.218c.205 0 .402.083.547.23a.788.788 0 010 1.106.768.768 0 01-.547.23H3.864a.768.768 0 01-.547-.23.788.788 0 010-1.106.768.768 0 01.547-.23h9.272zM16.227 0c.205 0 .402.082.547.23a.788.788 0 010 1.106.768.768 0 01-.547.23H.773a.768.768 0 01-.547-.23.788.788 0 010-1.107A.768.768 0 01.773 0h15.454z" fill="#1E4F48"/></svg>