<svg width="55" height="55" fill="none" xmlns="http://www.w3.org/2000/svg"><g clip-path="url(#clip0_595_8039)" stroke="#45504B"><path d="M27.5 54.623c14.98 0 27.123-12.143 27.123-27.123S42.48.377 27.5.377.377 12.52.377 27.5 12.52 54.623 27.5 54.623z" stroke-miterlimit="10"/><path d="M48.144 28.442a5.233 5.233 0 00-.415-.791 2.467 2.467 0 00-.565-.678c-.414-.377-.941-.64-1.469-.83-.603-.188-1.243-.338-1.883-.3-.678.075-1.319.263-1.96.376-.677.113-1.355.188-2.033.226-.679.038-1.357 0-2.035.075a8.543 8.543 0 00-3.578 1.168 4.97 4.97 0 00.3-1.243h.076a19.15 19.15 0 011.77-1.28c.302-.189.641-.377.943-.528.3-.15.64-.301.941-.452a2.58 2.58 0 00.791-.64c.226-.264.49-.49.754-.716.527-.377.98-.791 1.394-1.319a5.36 5.36 0 00.866-1.657c.113-.302.188-.64.226-.98 0-.301 0-.565-.113-.829 0 0-.038-.113-.075-.188a8.01 8.01 0 00-.603-.942c-.15-.263-.301-.527-.565-.715-.301-.226-.603-.189-.942-.151l-1.205.15-.565.076s-.377.075-.528 0c-.113-.075-.188-.226-.301-.301a.728.728 0 00-.34-.189c-.527-.15-1.092.15-1.581-.075-.264-.113-.415-.377-.566-.603-.15-.226-.339-.452-.602-.565-.264-.113-.565-.226-.791-.414-.226-.189-.377-.377-.565-.603-.377-.414-.791-.829-1.394-.829-.678 0-1.319.415-1.884.754-1.168.715-2.335 1.507-3.013 2.712-.302.565-.528 1.243-.49 1.883 0 .415.075.792.113 1.168v1.168c-.038.377-.076.754-.076 1.13 0 .377 0 .791.076 1.168.075.753.263 1.507.452 2.26.038.151.075.34.15.49a4.241 4.241 0 00-.452-.791c-.3-.49-.678-.942-1.167-1.206-.076 0-.113-.075-.189-.075.076-.64-.113-1.243-.339-1.808-.113-.34-.263-.716-.376-1.055-.113-.377-.151-.753-.264-1.13-.302-1.394-1.168-2.524-2.034-3.616-.754-.942-1.696-1.96-2.939-2.223-.753-.15-1.507 0-2.222.188a2.53 2.53 0 00-.867.377c-.263.188-.414.49-.565.791-.15.264-.301.527-.49.753-.188.227-.376.453-.527.716-.15.264-.188.528-.15.791 0 .151.112.34.037.49-.075.15-.301.302-.414.377-.603.452-1.168.942-1.884 1.205-.603.226-1.243.415-1.77.791-.942.716-1.055 1.997-.603 3.014.49 1.168 1.733 1.808 2.863 2.147.716.189 1.431.302 2.147.452.678.189 1.319.49 1.921.83.603.338 1.168.715 1.809 1.016.602.302 1.243.452 1.845.716.113.038.227.113.34.188-.302 0-.566.038-.83.151-.64-.301-1.28-.64-1.958-.829a8.671 8.671 0 00-2.185-.263c-.754 0-1.507.037-2.26 0-.377 0-.754-.038-1.13-.151-.34-.075-.603-.264-.942-.414a1.615 1.615 0 00-.942-.151c-.301.038-.603.188-.867.377-.527.414-.866 1.017-1.13 1.62-.263.602-.452 1.28-.339 1.958.038.302.151.64.302.904.15.264.376.49.602.716.264.264.49.528.603.904.113.302.264.678.565.867.34.188.716 0 1.093-.076.339-.075.678-.075 1.017-.113-.226.34-.415.678-.452 1.093-.076.414 0 .866.301 1.205.678.791 1.884.189 2.75.377.264.038.527.15.791.188.264.076.565.076.829.076.565 0 1.092-.15 1.62-.34.527-.188 1.055-.451 1.582-.677.527-.226 1.017-.49 1.507-.791.678-.415 1.318-1.018 2.034-1.394.34.64 1.017 1.054 1.733 1.167.414.038.866.076 1.206.302.3.226.49.527.866.64.075.528.15 1.055.226 1.62.15 1.281.339 2.524.49 3.805.15 1.017.263 2.11-.113 3.089 0 .075-.038.226.037.264.264.15.565.188.867.113.037 0 .075-.076.075-.113.15-2.901-.226-5.802-.565-8.702v-.377l3.579 1.733c.565.264 1.13.565 1.695.753a9.25 9.25 0 001.77.377c.679.075 1.394.075 2.11.113.113 0 .188-.113.113-.226-.264-.377-.527-.716-.716-1.13-.226-.415-.301-.867-.49-1.281-.338-.791-1.13-1.168-1.845-1.544a14.21 14.21 0 00-1.319-.64 3.883 3.883 0 011.13-.528c.038 0 .076 0 .076-.076h.075c1.017.226 2.034.565 2.976 1.017.49.227.942.49 1.394.716.49.226.98.34 1.507.415.565.075 1.13.113 1.657.15h1.432c.829-.037 1.733-.263 2.336-.866.376-.34.602-.791.979-1.13.188-.151.377-.302.565-.415.15-.075.414-.188.377-.414 0-.113-.113-.188-.151-.302l-.226-.339c-.15-.226-.339-.451-.49-.678l-.075-.075c.301-.49.678-.942 1.13-1.318.226-.189.452-.34.64-.528a.758.758 0 00.114-.79l-.151.037zm-.867-.942c-.188 0-.376.075-.565.113-.226 0-.49.038-.716.075h-1.205c.528-.226 1.017-.602 1.319-1.092.113.075.263.113.376.188.34.189.603.452.829.716h-.038zm-20.04-1.507c-.415-1.431-.83-2.9-.792-4.407 0-.754.189-1.507.113-2.26-.038-.716-.188-1.395 0-2.11.34-1.281 1.319-2.26 2.411-3.014 0 .226.113.414.188.603.076.188.113.414.189.603.113.414.113.866.188 1.318.038.414.15.791.302 1.168.15.414.301.829.452 1.205-.113-.452-.264-.866-.415-1.318a4.987 4.987 0 01-.301-1.243c-.038-.415-.075-.791-.188-1.206-.038-.226-.114-.414-.189-.64l-.113-.302s-.038-.15-.075-.188a9.87 9.87 0 01.829-.527c.301-.189.602-.377.904-.49.301-.15.678-.264 1.017-.188.263.037.49.188.678.376.377.34.678.791 1.13 1.093a.8.8 0 01.188.113v1.243c0 .075-.037.15-.075.226v.038-.113h.038v-.076s.037-.113.075-.188V14.58c.188.075.377.15.565.263.226.151.377.377.527.603.151.226.34.415.566.49.226.113.49.075.753.075.264 0 .527-.075.754 0 .112 0 .225.076.3.189.114.113.151.226.302.301-.038.113-.075.264-.113.377-.075.15-.188.339-.301.49a2.294 2.294 0 01-.98.715c-.376.15-.753.302-1.092.528-.34.226-.64.452-.904.753v.075c.301-.301.64-.565 1.017-.753.377-.226.791-.377 1.205-.565.34-.15.64-.415.83-.716.188-.264.338-.565.376-.866.264.113.64 0 .904 0l1.13-.151s.377-.038.565-.075c.15 0 .34 0 .49.037.264.151.414.49.565.716.188.301.414.603.565.942 0 .037.038.075.075.113h-.113s-.226.15-.376.188c-.264.113-.49.264-.754.415v.075c.264-.113.49-.226.754-.34.113-.037.263-.112.376-.15l.151-.075s.075.226.075.339a.286.286 0 01-.075.15.882.882 0 01-.264.264c-.226.189-.452.34-.64.528.226-.113.49-.264.716-.452.113-.076.226-.189.301-.302v.302a5.649 5.649 0 01-1.28 2.637c-.19 0-.378.075-.566.15l-.565.34c-.339.263-.678.527-1.055.753-.414.264-.866.414-1.318.565-.528.15-1.093.263-1.582.49v.075c.565-.075 1.092-.264 1.657-.415a4.507 4.507 0 001.243-.49c.377-.225.678-.489 1.055-.753l.565-.339c.15-.075.34-.15.49-.226-.113.151-.264.264-.415.377-.263.226-.527.377-.753.603-.264.226-.452.452-.678.715-.226.264-.527.415-.829.566-.301.15-.64.3-.941.452-.603.339-1.206.678-1.771 1.092-.226.15-.415.302-.64.49v-.415c0-.037 0-.263-.114-.263-.338.075-.678.15-.979.263.075-.113.188-.226.264-.339.188-.226.377-.414.602-.565a12.3 12.3 0 011.357-.941c.49-.302.98-.603 1.431-.942a15.946 15.946 0 001.545-1.243c.15-.113.263-.226.414-.34.15-.15.301-.3.414-.452.264-.263.566-.527.83-.79-.264.188-.49.451-.754.677-.113.113-.226.189-.377.302-.15.113-.264.226-.414.339-.49.452-1.017.866-1.583 1.243-.941.678-1.958 1.168-2.825 1.921-.414.34-.79.716-1.055 1.206a8.117 8.117 0 00-1.808.904l.565-.791c.264-.34.49-.64.754-.942.565-.64 1.13-1.243 1.733-1.846.602-.603 1.205-1.205 1.77-1.883l.075-.113s.34-.227.528-.34a3.8 3.8 0 01.565-.263c.414-.15.829-.302 1.205-.452.791-.302 1.507-.716 1.96-1.432.225-.377.414-.866.414-1.28 0 0 0-.076 0 0-.038.226-.076.451-.151.64-.075.188-.15.414-.264.603-.226.339-.527.64-.904.866-.678.414-1.507.64-2.223.942a4.488 4.488 0 00-.602.301 3.681 3.681 0 00-.302.188l1.244-1.582c.263-.339.49-.715.64-1.13.15-.414.188-.866.188-1.28 0 .866-.339 1.62-.828 2.297-.453.64-.98 1.281-1.507 1.884-.565.64-1.168 1.28-1.77 1.883A19.235 19.235 0 0033 24.788c-.565.678-1.13 1.393-1.582 2.147 0 0-.264.188-.377.264a10.167 10.167 0 00-2.524 2.863 7.403 7.403 0 00-.49.941c.076-.226.113-.452.151-.678.113-.64.113-1.28-.075-1.883a9.024 9.024 0 00-.377-.904c-.15-.302-.301-.64-.414-.942l-.113-.226s.15-.076.113-.189l-.076-.188zm-7.723 1.695c-.64-.226-1.206-.49-1.77-.79a25.76 25.76 0 00-1.734-.98c-.64-.302-1.28-.528-1.959-.64-1.243-.264-2.561-.49-3.54-1.394-.792-.754-1.206-1.997-.679-2.977.301-.564.829-.828 1.394-1.054.301-.113.565-.189.866-.34.34-.15.64-.3.942-.527.302-.188.565-.414.867-.64.226-.189.602-.377.678-.678v-.904c.075-.264.226-.49.414-.678.188-.226.377-.415.527-.678.114-.189.189-.377.302-.566.339.34.678.64.98 1.018.3.414.49.866.677 1.356.189.452.49.79.867 1.092.377.34.791.64 1.13 1.017 1.394 1.432 2.26 3.278 3.014 5.086.414.942.829 1.996 1.657 2.637.038.038.076-.075 0-.113a5.667 5.667 0 01-.904-1.168c-.264-.414-.452-.866-.64-1.318-.377-.905-.754-1.809-1.243-2.675-.415-.754-.867-1.47-1.432-2.147v-.038a4.58 4.58 0 01-.264-.64 2.131 2.131 0 01-.113-.679 16.569 16.569 0 00-.15-1.356 5.014 5.014 0 00-.377-1.28c-.188-.415-.377-.83-.678-1.168v.075c.264.415.49.829.678 1.28.188.453.301.943.339 1.395.075.452.075.904.15 1.356.038.264.114.603.227.866a8.918 8.918 0 00-1.055-1.017c-.377-.301-.791-.602-1.055-1.055-.15-.263-.226-.527-.377-.828a6.081 6.081 0 00-.376-.678c-.151-.226-.34-.415-.49-.603-.15-.15-.34-.34-.527-.452 0-.076.075-.113.113-.189.188-.263.49-.376.79-.49a8.625 8.625 0 011.055-.263c.679-.113 1.357 0 1.96.301.527.264 1.017.678 1.43 1.13.453.453.83.98 1.206 1.47.415.565.791 1.13 1.093 1.733.301.678.377 1.393.565 2.072.188.678.527 1.318.678 2.034.075.339.075.678 0 1.017v.075c-.113.34-.226.678-.301.98-.302 1.318-.076 2.637.301 3.918.226.753.49 1.506.753 2.26.113.339.226.64.415.941-.565-.49-.98-1.167-1.47-1.732a3.506 3.506 0 00-1.242-.98c-.603-.264-1.319-.414-1.96-.527h-.075c-.452-.377-.98-.603-1.507-.791l-.15-.076zm-.867 8.25c-.98.415-2.034.83-3.126.603-.49-.113-.942-.264-1.47-.226-.452 0-.941.15-1.393.075-.49-.075-.792-.49-.83-.98 0-.564.302-1.091.604-1.506.112-.15-.076-.339-.189-.188-.339 0-.64 0-.98.075-.15 0-.338.038-.49.075-.187.038-.338.113-.526.113-.34 0-.49-.376-.566-.64a2.712 2.712 0 00-.452-.791c-.376-.452-.828-.829-1.017-1.432-.188-.602-.075-1.28.151-1.883.226-.565.527-1.206.98-1.62a1.87 1.87 0 01.828-.49c.34-.075.64 0 .904.113.302.113.565.302.867.377.339.113.64.15.98.15.564.038 1.13 0 1.657 0v.076c.64.226 1.28.414 1.883.716a10.01 10.01 0 011.695 1.092v-.075c-.527-.452-1.092-.866-1.695-1.168a6.088 6.088 0 00-1.808-.64h.302c.79 0 1.582 0 2.335.188.678.15 1.319.452 1.921.753-.075.038-.15.114-.226.151-.075.075-.075.34 0 .377.528.301 1.055.565 1.545.942.301.226.565.49.829.753h-.791c-.415 0-.792-.038-1.168-.113-.151 0-.264-.038-.415-.075-.188-.226-.452-.377-.678-.528-.264-.15-.49-.301-.753-.452-.528-.263-1.093-.452-1.658-.64-1.13-.34-2.298-.415-3.466-.603-.678-.113-1.356-.264-1.996-.527v.075c1.055.565 2.26.64 3.428.791 1.206.15 2.336.452 3.428.98.301.15.565.301.829.452.188.113.339.226.527.339-.49-.151-.941-.302-1.431-.452-.678-.226-1.356-.452-2.072-.565a5 5 0 00-2.11.113c-.753.188-1.469.527-2.034 1.054v.038c1.168-.829 2.562-1.243 3.956-1.055 1.469.189 2.787.904 4.256 1.243.415.113.83.151 1.281.189h1.093c.113.113.188.226.301.339.188.226.339.414.49.64-.34.076-.678.226-1.017.302-.34.075-.64.15-.98.226-.716.15-1.394.226-2.11.301-1.243.15-2.486.377-3.578.942a4.508 4.508 0 00-1.545 1.243c1.545-1.695 3.918-1.846 6.065-2.11-.414.151-.828.34-1.205.49-.49.188-.98.377-1.432.603-.79.339-1.544.715-2.072 1.431.528-.64 1.357-1.017 2.11-1.356.452-.188.904-.377 1.394-.527.49-.189 1.017-.377 1.507-.64v-.038c.263 0 .49-.076.753-.113.377-.076.716-.151 1.093-.226a5.562 5.562 0 001.092-.452v-.076c.226.302.414.565.678.829.076.075.15.113.189.188-.113.038-.227.076-.302.151-.075 0-.188 0-.188.113-.528.301-.98.678-1.47 1.017-.866.603-1.808 1.055-2.787 1.47h.075zm9.569 5.915c.037.828.037 1.657 0 2.524-.226.037-.415 0-.603-.038.264-.791.226-1.657.15-2.486-.075-.64-.15-1.319-.225-1.96-.189-1.355-.34-2.712-.528-4.068.076-.075.076-.188 0-.226-.075-.678-.188-1.356-.264-2.034 0-.038 0-.15-.112-.113-.076 0-.076.188-.038.226.075.603.15 1.243.226 1.846-.264-.113-.452-.414-.678-.565-.34-.226-.754-.264-1.13-.302-.415-.037-.754-.112-1.093-.338a2.065 2.065 0 01-.602-.679c.15-.075.3-.15.451-.188.302.188.603.34.942.414.565.151 1.319.151 1.808-.188.038 0 .076-.226 0-.226-.263 0-.527.075-.79.113-.264 0-.566 0-.83-.075-.3-.038-.564-.151-.828-.302 0-.075-.075-.113-.188-.113 0 0-.34-.226-.49-.376-.452-.452-.791-1.017-1.168-1.507a8.02 8.02 0 00-1.28-1.243c-.415-.34-.905-.679-1.395-.905.452-.263 1.018-.3 1.507-.188.34.038.678.113.98.226.301.075.64.15.941.302.98.452 1.507 1.393 2.185 2.184.34.415.754.83 1.281 1.018h.038c.113.075.15-.264.075-.34a3.404 3.404 0 01-.942-1.469 33.894 33.894 0 01-.602-1.808c-.377-1.13-.754-2.335-.603-3.54 0-.302.075-.604.15-.867a1.84 1.84 0 01.151-.415c.038-.113.076-.377.264-.377.113 0 .264.114.339.189.113.075.226.15.301.264.189.188.377.376.528.602.339.452.603.98.829 1.507.226.565.49 1.093.753 1.658.15.301.264.602.301.942.038.338.038.678 0 .979-.075.678-.301 1.318-.452 1.959v.075s0 .226.076.113c.527-1.168 1.092-2.26 1.92-3.24.83-.941 1.81-1.77 2.977-2.298a6.965 6.965 0 011.883-.64 6.667 6.667 0 01-1.544 3.579c-.226.301-.49.565-.716.866l-.678.904c-.377.566-.866.942-1.47 1.244-.64.339-1.317.527-2.033.715h.075V33a4.576 4.576 0 00-.527.377c.075-.189.188-.377.263-.565 0 0 0-.189-.037-.113-.151.15-.302.301-.415.49.076-.189.113-.377.189-.566v-.113c-.113.113-.189.264-.264.415v-.302s-.038-.075-.038 0c0 .151-.075.34-.113.49 0-.188-.037-.377-.075-.565 0-.038-.038-.038-.038 0 0 .15-.075.301-.075.49l-.15-.189v.038a.917.917 0 010 .452c-.076-.113-.19-.188-.265-.264v.038c.076.113.189.226.264.339V33c0 .038.076.113.113.15 0-.15.038-.263.076-.414 0 .189.037.377.075.603 0 .038.038.113.075 0 .038-.113.076-.264.113-.377v.189s0 .113.038 0 .113-.226.15-.34c-.075.227-.15.415-.263.641v.113s0 .038.038 0c.113-.188.226-.339.376-.527l-.226.452s0 .15.038.15c.188-.113.339-.263.527-.376v.075s-.113.038-.15.075c-.113.113-.113.34-.151.49a3.306 3.306 0 00-.038 1.055c0 .753.151 1.507.226 2.298.151 1.544.34 3.127.415 4.709v-.113zm3.164-7.798c-.98.377-2.034.226-3.051.075-.189 0-.264.264-.076.264 1.017.15 2.11.339 3.09 0 .376-.15.753-.34 1.092-.565h.038c.452.15.866.377 1.28.565.377.188.754.377 1.093.603.339.226.64.49.791.866.15.339.226.716.377 1.055-.377-.189-.716-.377-.98-.678-.301-.302-.565-.565-.942-.791a6.615 6.615 0 00-1.205-.452c-.452-.151-.942-.227-1.394-.34v.076c.49.113.942.264 1.432.377a4.77 4.77 0 011.205.49c.188.112.377.225.527.376.151.15.302.34.453.49.263.263.602.49.979.527.188.377.414.716.64 1.017-1.092 0-2.222-.075-3.277-.377-.603-.188-1.168-.452-1.695-.715l-1.733-.829-1.959-.942s-.15 0-.188.038c0-.188 0-.377-.038-.603v-.603c0-.075 0-.188.038-.263 0 0 .037-.226.113-.264 0 .038.075.075.113.075.866-.226 1.77-.527 2.524-1.017h.075c.942.076 1.846.113 2.75.264-.716.301-1.319.829-2.034 1.13l-.038.15zm14.052-3.993s-.377-.264-.603-.302c-.226-.075-.49-.113-.716-.188-.452-.15-.904-.415-1.394-.49-.565-.075-1.092.075-1.657.188-.528.114-1.093.227-1.62.377-.528.15-1.017.34-1.545.49-.527.15-1.092.226-1.62.301-.263 0-.565.038-.828.038-.189 0-.189.301 0 .301.527 0 1.054-.075 1.582-.15.527-.076 1.017-.226 1.544-.377 1.017-.34 1.997-.565 3.052-.791.527-.113 1.017-.15 1.544.038.226.075.452.188.678.263.226.076.452.15.678.189.226.037.452.113.64.226.19.113.34.301.453.452.339.414.603.829.904 1.28l.226.34.113.15s0 .038.038.076c0 0-.189.113-.302.188-.113.075-.188.113-.301.188-.377.302-.64.64-.942 1.017h-.038s-.339-.037-.49-.113c-.188-.075-.376-.15-.527-.263-.339-.189-.64-.415-.98-.64-.64-.453-1.242-.943-2.033-1.056.79.226 1.469.754 2.11 1.244.3.226.602.452.941.64.188.113.34.188.527.226.113 0 .226.075.34.075-.227.264-.528.49-.867.64a4.357 4.357 0 01-1.206.302c-.979.113-1.958 0-2.938-.075a5.397 5.397 0 01-1.544-.34c-.452-.188-.905-.451-1.357-.677-.904-.452-1.845-.829-2.825-1.055-1.017-.264-2.11-.377-3.164-.452h-.528a4.58 4.58 0 00.603-.603c.226-.301.452-.64.678-.942.226-.301.49-.602.754-.904a9.069 9.069 0 001.13-1.808h.037a7.81 7.81 0 013.24-1.28c.301-.038.565-.076.867-.076l-.64.226c-.49.15-.943.301-1.395.527-.753.34-1.431.867-2.034 1.394-.188.15-.339.34-.527.49-.151.15-.302.339-.49.49 0 0 .301-.226.452-.377.15-.15.301-.302.49-.415.301-.263.64-.527.941-.79.34-.264.679-.453 1.055-.641.415-.226.867-.339 1.319-.49l.79-.263s.378-.113.566-.151h.49c.64 0 1.28-.075 1.92-.15a17.12 17.12 0 001.922-.34c.301-.075.603-.15.904-.15.302 0 .64 0 .942.075a4.24 4.24 0 011.168.377c-.226.3-.49.527-.791.753-.226.15-.49.264-.754.377-.79 0-1.62.037-2.41.263a4.169 4.169 0 00-1.018.452l-1.13.34c-.716.188-1.431.338-2.147.414-.829.113-1.695.113-2.524.113 1.47.226 3.014.037 4.407-.302.716-.188 1.394-.414 2.11-.565.264-.037.49-.075.754-.113 0 0 .3.226.49.302.15.075.338.188.489.264.339.188.678.376 1.055.527.339.15.715.301 1.054.377.151.037.34.075.528.113.188.037.377.075.565.075-.264.264-.452.565-.678.866-.189-.263-.415-.565-.678-.753l.15.038zm2.448-1.13c-.15.226-.452.414-.64.565a1.792 1.792 0 00-.377.376v-.037c-.15-.076-.34-.076-.527-.113-.189 0-.377-.076-.603-.151a9.293 9.293 0 01-1.093-.377c-.339-.15-.678-.301-1.017-.49-.188-.075-.339-.188-.49-.263-.113-.076-.3-.189-.452-.226h1.244a5.83 5.83 0 011.167.226c.34.113.678.264 1.055.339v-.075c-.264-.227-.64-.34-.941-.453a4.13 4.13 0 00-.98-.226c-.678-.113-1.356-.075-2.034 0a6.574 6.574 0 00-.829.189c.866-.452 1.883-.528 2.863-.565h1.658c.263 0 .527 0 .753-.038.226 0 .49-.038.716-.15.113.15.188.263.263.414.151.263.453.64.264.942v.113z" fill="#45504B" stroke-width=".25" stroke-linecap="round" stroke-linejoin="round"/><path d="M29.157 25.353c-.263 1.054-.64 2.11-.904 3.164 0 0 0 .075 0 0 .302-.866.566-1.77.791-2.675.264-.904.49-1.845.64-2.787.265-1.77.415-3.579 1.244-5.199.415-.791.942-1.507 1.695-1.997v-.075c-1.318.867-1.996 2.336-2.373 3.843a23.908 23.908 0 00-.49 2.863 38.45 38.45 0 01-.565 2.863h-.038zM28.103 19.4c0 .641.075 1.244.188 1.847a10.643 10.643 0 01-.038 3.767c-.113.715-.263 1.431-.376 2.147 0 0 0 .075.037 0 .302-1.206.565-2.449.603-3.692 0-.603 0-1.205-.075-1.808-.076-.64-.226-1.243-.264-1.884v-1.055c0-.376.038-.753.075-1.13-.075.302-.075.603-.113.905v.904h-.037zm.263-2.41s.113-.377.189-.528c.075-.15.188-.301.264-.452 0 .226.037.49.037.754v1.544c.113 1.055.377 2.148.904 3.09v-.038a9.387 9.387 0 01-.866-3.353v-1.582c0-.226-.038-.49-.113-.716-.038-.188-.113-.452-.264-.603v.075c.113.264.226.528.264.792 0 0-.189.339-.264.49-.075.188-.15.338-.188.527 0 0 0 .037 0 0h.037zm2.298 6.554c.076-.678.151-1.318.34-1.959.075-.377.188-.716.3-1.092.114-.377.265-.716.415-1.093-.264.528-.452 1.13-.64 1.733a10.717 10.717 0 00-.377 1.846c-.075.64-.113 1.28-.264 1.921a7.174 7.174 0 01-.565 1.733c-.263.64-.64 1.243-1.017 1.808v.076c.754-.867 1.243-1.997 1.507-3.127.15-.603.226-1.243.264-1.846h.037zm1.809-5.349c-.151.34-.377.64-.603.942v.075c.263-.301.49-.602.603-.98v-.037z" fill="#45504B" stroke-width=".25" stroke-linecap="round" stroke-linejoin="round"/><path d="M31.87 17.856s-.076.188-.076.264c0 .113-.037.188-.075.301a3.304 3.304 0 00-.075.603s0 .075 0 0c0-.188.038-.377.075-.565 0-.075.038-.189.075-.264 0-.113.076-.188.076-.301v-.075.037zm.565 4.182c-.264.753-.49 1.544-.791 2.26a7.035 7.035 0 01-.64 1.168c-.227.376-.49.753-.754 1.13v.075c.264-.264.49-.565.716-.866.226-.302.414-.64.565-.98.377-.715.603-1.469.866-2.222.113-.377.264-.791.452-1.13.151-.34.377-.64.565-.98.377-.603.83-1.168 1.13-1.808.076-.15.151-.34.189-.527.038-.076.113-.114.15-.189a.973.973 0 00.189-.226c.15-.188.339-.339.49-.527.339-.34.715-.603 1.054-.942v-.113c-.113.038-.188.113-.3.188-.114.076-.19.15-.265.226-.188.151-.339.302-.527.49-.15.15-.301.34-.452.49-.075.075-.15.188-.226.263 0 .038-.038.076-.075.113.037-.15.075-.339.113-.49 0-.225.037-.451.075-.677 0-.226.075-.49.15-.716 0 0 0-.075 0 0-.15.339-.188.716-.225 1.092-.038.34-.076.716-.189 1.017v.151c-.301.64-.753 1.243-1.168 1.808-.414.603-.79 1.244-1.054 1.96l-.038-.038zm.339-1.093c.15-.414.188-.866.264-1.318.075-.452.15-.904.188-1.356a4.5 4.5 0 00-.15-1.243c-.038-.226-.076-.415-.076-.64 0-.227.113-.378.226-.566v-.075c-.264.15-.301.603-.301.866 0 .452.226.904.263 1.356 0 .528-.113 1.017-.188 1.545-.075.49-.188.98-.188 1.47l-.038-.039zm.565-3.277c.188-.264.339-.527.527-.79l.566-.792v-.075a3.58 3.58 0 00-.566.753c-.188.264-.339.565-.527.829v.075zm-1.695-1.244c.15-.377.188-.829.226-1.243 0-.264.075-.49.188-.716.113-.188.226-.376.377-.565 0 0-.302.302-.415.452-.113.189-.15.377-.188.565 0 .226-.038.49-.075.716-.038.226-.113.49-.15.716v.038l.037.037zm.037-1.243s.038 0 0-.038l-.226-.904c-.037-.15-.075-.301-.075-.452v-.49c-.075.114-.075.264-.075.415 0 .15 0 .339.075.49.075.339.188.678.302 1.017v-.038zM30.363 16.5c0 .339 0 .678.113.98 0 .037 0 0 0 0-.113-.34-.113-.679-.113-1.018 0-.339 0-.678.038-1.017.075-.678.226-1.318.414-1.959 0 0 0-.075 0 0-.264.64-.377 1.356-.414 2.034 0 .34-.038.679-.038 1.055V16.5zm.037-1.357c0-.263 0-.527-.075-.79 0-.151-.075-.264-.15-.377a.987.987 0 00-.189-.34v.038c.038.113.113.226.151.34.038.112.113.225.15.338.076.264.114.528.114.754v.037zm-2.486 4.86c-.075-.527-.301-.979-.527-1.431-.113-.264-.226-.527-.301-.791a3.076 3.076 0 01-.038-1.017s0-.076 0 0c-.113.565 0 1.13.188 1.657.226.528.603 1.017.678 1.62v-.038zm-.301-2.637c.113.226.188.49.188.754 0 0 0 .075 0 0 0-.189 0-.377-.037-.528-.038-.188-.151-.377-.226-.565-.113-.226-.076-.49-.076-.716 0-.263.076-.49.151-.715v-.076c-.113.189-.15.377-.188.603v.678c0 .226.113.415.188.603v-.038zm.49-1.581c0 .226 0 .452-.076.678 0 0 0 .075 0 0 .038-.226.076-.452.076-.716 0-.226 0-.49-.076-.716 0-.037 0 0 0 0 0 .226.076.452.076.678v.076zm-.641 10.962h.038c0-.566-.075-1.13-.113-1.696-.075-.565-.15-1.167-.226-1.733-.113-.565-.226-1.13-.264-1.733 0-.49.038-.979.038-1.506 0-.226 0-.49-.075-.716-.038-.226-.113-.49-.264-.64.113.263.188.49.264.753.037.226.037.49.037.716 0 .49-.037.98-.037 1.431 0 .528.113 1.055.188 1.62.075.565.15 1.093.226 1.658.075.602.113 1.243.188 1.846zm.113-5.538c.151.414.113.829 0 1.243-.075.377-.188.716-.188 1.092 0-.452.188-.904.264-1.318.075-.34.075-.716-.076-1.017zm4.483-1.018c-.075.565-.188 1.093-.301 1.658-.113.49-.226 1.017-.226 1.544 0-.565.15-1.092.264-1.657.112-.49.263-1.017.263-1.545zm.904 3.542c-.376.678-.79 1.356-1.394 1.846v.075c1.055-.866 1.583-2.11 2.148-3.315.301-.64.602-1.28.941-1.884a5.326 5.326 0 011.394-1.506c.678-.453 1.545-.83 1.997-1.545v-.075c-.49.602-1.13.98-1.77 1.356-.302.188-.603.414-.83.678-.225.226-.414.49-.602.753-.414.528-.716 1.13-.98 1.733-.3.64-.565 1.281-.904 1.921v-.037z" fill="#45504B" stroke-width=".25" stroke-linecap="round" stroke-linejoin="round"/><path d="M36.353 18.91c-.226.114-.302.415-.34.679 0 .188 0 .377-.112.565-.076.188-.226.301-.302.452-.376.49-.565 1.13-.565 1.77 0 .038 0 .038 0 0 0-.64.226-1.28.64-1.77.189-.226.302-.414.34-.716.037-.339.075-.602.339-.866v-.114zm2.222 1.659c-.602.678-1.13 1.431-1.959 1.845-.452.226-.941.377-1.393.603a5.5 5.5 0 00-1.244.829v.075a6.088 6.088 0 011.244-.753c.452-.226.941-.377 1.393-.603.83-.414 1.432-1.168 1.922-1.921v-.075h.037zM26.784 31.757c-.15-1.13-.377-2.26-.64-3.39a27.708 27.708 0 00-.415-1.696c-.075-.263-.15-.527-.226-.828l-.113-.453c0-.113-.075-.226-.113-.339 0-.037-.037.038-.037.076 0 .263.113.565.188.829.075.263.15.527.226.828.15.528.264 1.093.415 1.62.263 1.13.49 2.26.678 3.39 0 .076.037 0 .037 0v-.037zm-.64-.716c-.075-.264-.189-.527-.264-.791a24.36 24.36 0 01-.49-1.545 11.867 11.867 0 01-.339-1.582 22.541 22.541 0 01-.15-1.657s0-.038 0 0c-.076.527 0 1.092.075 1.62.075.565.188 1.092.339 1.657.15.527.34 1.093.527 1.62.113.264.189.527.302.791.113.264.188.527.301.753 0 .038.038-.037 0-.075-.075-.264-.188-.527-.264-.79h-.037zm.527-3.842c.377.98.452 2.034.415 3.051 0 .565-.076 1.168-.151 1.733 0 .038.038.113.038 0 .15-1.055.263-2.11.15-3.164a6.676 6.676 0 00-.301-1.507c-.15-.49-.377-.98-.603-1.47-.264-.564-.49-1.167-.791-1.694-.038-.076-.075.075-.038.113.377.98.904 1.883 1.281 2.863v.075zm.979 5.349c.49-1.017 1.168-1.959 1.922-2.787.829-.904 1.77-1.658 2.75-2.374.264-.188.565-.414.829-.602.263-.189.602-.377.828-.64v-.114c-.15.038-.263.15-.376.226-.151.113-.264.188-.415.301-.263.189-.49.377-.753.528-.49.377-.98.753-1.47 1.168-.866.753-1.695 1.582-2.373 2.561a9.284 9.284 0 00-.941 1.696s0 .075 0 0v.037z" fill="#45504B" stroke-width=".25" stroke-linecap="round" stroke-linejoin="round"/><path d="M29.91 31.267c.566-.603 1.093-1.243 1.47-1.959.226-.414.452-.829.565-1.243 0 0 0-.15-.038-.075-.188.339-.338.716-.527 1.055a9.288 9.288 0 01-.64 1.017 9.245 9.245 0 01-1.658 1.77c-.339.302-.716.565-1.092.829v.075c.715-.376 1.356-.904 1.92-1.469zm3.768-4.482s-.264.3-.377.452a4.9 4.9 0 00-.376.565c-.264.376-.49.753-.754 1.13-.49.753-1.017 1.469-1.657 2.147a11.07 11.07 0 01-1.168 1.13v.075c1.507-1.054 2.486-2.636 3.503-4.143.302-.415.64-.867.867-1.319v-.075l-.038.038zm-7.497 6.14a5.308 5.308 0 01-1.205-.64c-.377-.264-.64-.603-.942-.942-.264-.34-.527-.678-.828-.98a5.25 5.25 0 00-1.018-.79 5.353 5.353 0 00-1.28-.528c-.076 0-.076.188 0 .226.828.264 1.582.64 2.184 1.243.603.603 1.018 1.356 1.696 1.884.414.3.904.49 1.356.64 0 0 .038-.075 0-.075l.038-.038z" fill="#45504B" stroke-width=".25" stroke-linecap="round" stroke-linejoin="round"/><path d="M23.13 31.53a22.959 22.959 0 00-.904-.979c-.301-.301-.565-.678-.904-.942v.113c.264.377.603.678.942 1.055.301.34.602.678.904.98.264.263.565.565.904.79.339.264.716.453 1.092.603v-.037c-.753-.34-1.431-.904-1.996-1.507l-.038-.076zm5.01 2.073v.075c.942.302 2.035.226 2.901-.301v-.075c-.452.15-.942.301-1.431.376-.49.038-.98 0-1.432-.075h-.038zm-5.16-10.699c-.114-.301-.151-.64-.227-.98 0-.414.151-.828.302-1.242.113-.377.188-.754.188-1.168 0-.716-.113-1.582-.49-2.185v.075c.151.377.302.754.377 1.168.076.377.113.791.076 1.205-.038.415-.151.791-.264 1.168-.076.226-.15.49-.15.754-.076-.415-.152-.867-.265-1.281a8.826 8.826 0 00-.828-2.072c-.377-.64-.792-1.243-1.168-1.884-.415-.678-.754-1.393-.942-2.185 0-.075-.075 0-.075.076.226 1.431 1.13 2.674 1.883 3.88.377.64.754 1.318.942 2.072.226.829.301 1.733.565 2.561.226.867.603 1.771 1.168 2.45 0 .037.038-.076 0-.076-.452-.716-.829-1.47-1.055-2.298l-.038-.038z" fill="#45504B" stroke-width=".25" stroke-linecap="round" stroke-linejoin="round"/><path d="M21.887 16.764c.075.339 0 .678 0 1.017 0 .527 0 1.055.301 1.507v-.038c-.339-.565-.226-1.243-.226-1.846 0-.301 0-.603-.075-.866-.075-.264-.226-.528-.377-.754.15.34.302.678.34 1.017l.037-.037zm-.678.753c0-.414-.226-.828-.415-1.205-.113-.189-.188-.415-.263-.603a4.339 4.339 0 01-.15-.678c0-.038-.039-.038-.039 0-.075.414.151.867.34 1.205.188.415.452.83.49 1.281h.037zm2.712 6.178s.038-.038 0-.075c-.414-.829-.15-1.77-.301-2.6.113.867-.189 1.846.301 2.675zm-6.404-8.552c-.15-.3-.226-.64-.301-.979 0-.038 0 0 0 0 0 .64.339 1.319.715 1.808.415.565.942.98 1.394 1.507v-.037c-.376-.528-.866-.98-1.28-1.507a6.158 6.158 0 01-.528-.83v.038zm3.617 4.559c-.189-.753-.377-1.507-.754-2.147 0-.038-.038.038 0 .075.34.716.565 1.507.754 2.26.15.754.3 1.508.49 2.223 0 .038.037 0 0 0a52.882 52.882 0 00-.49-2.373v-.038zm.64 1.582c.075.603.226 1.168.452 1.695-.226-.565-.34-1.13-.452-1.695zm-2.223-.037s-.075.113 0 .113c.716.791 1.244 1.733 1.733 2.675.49.866.942 1.77 1.582 2.524.34.414.754.79 1.244 1.054v-.075c-1.733-1.205-2.449-3.202-3.504-4.935a7.29 7.29 0 00-1.055-1.356zm-.828-1.658s.188.264.3.414c.19.264.378.566.604.791.452.49 1.092.754 1.469 1.319 0 .038.038 0 0-.075-.34-.565-.942-.904-1.432-1.394-.263-.264-.452-.565-.64-.829-.113-.15-.188-.264-.301-.414-.113-.113-.226-.264-.377-.34-.038 0 0 .076 0 .114.113.113.226.226.339.376l.038.038zm-2.713-1.055c.302.452.452.98.678 1.47.377.866.942 1.62 1.507 2.335 1.243 1.507 2.788 2.75 3.993 4.257.377.452.716.942 1.055 1.431.15.264.34.528.49.754.15.264.301.49.452.753-.113-.226-.226-.49-.34-.715a6.548 6.548 0 00-.413-.679c-.302-.452-.603-.904-.905-1.318a22.546 22.546 0 00-1.996-2.26c-1.356-1.357-2.825-2.675-3.692-4.408-.264-.527-.414-1.13-.716-1.657-.301-.528-.678-.942-1.13-1.357-.037-.037-.075.113 0 .151.34.415.716.791 1.017 1.243z" fill="#45504B" stroke-width=".25" stroke-linecap="round" stroke-linejoin="round"/><path d="M17.253 19.514c.415.565.904 1.017 1.357 1.545.452.527.866 1.092 1.243 1.695.414.64.79 1.318 1.092 1.996v-.037c-.565-1.281-1.28-2.487-2.147-3.541-.452-.566-.942-1.055-1.394-1.583-.452-.565-.716-1.243-1.017-1.92-.264-.641-.64-1.282-1.243-1.658-.038 0-.075.15 0 .188 1.168.716 1.318 2.26 2.072 3.315h.037zm-2.26.076c.188.15.415.3.64.414.453.264.905.49 1.319.829v-.076c-.377-.376-.829-.64-1.243-.904-.226-.113-.415-.264-.64-.414a2.065 2.065 0 01-.34-.264c-.075-.075-.15-.188-.263-.226-.038 0 0 .075 0 .113.113.226.339.377.527.527zm1.657 2.109a20.923 20.923 0 01-1.092-.83c.34.302.678.566 1.017.867.151.113.34.264.49.377.188.113.377.264.565.377v-.076c-.15-.15-.339-.226-.49-.339-.188-.113-.339-.263-.527-.376h.038zm-.15 1.996c.716.49 1.47.98 2.223 1.47.715.49 1.431 1.016 2.072 1.62.678.602 1.318 1.318 2.184 1.732v-.038c-.678-.49-1.28-1.092-1.883-1.657-.603-.603-1.281-1.093-1.997-1.582-1.394-.942-2.9-1.733-4.181-2.863-.678-.603-1.319-1.281-1.77-2.035v.038c.79 1.394 2.034 2.449 3.352 3.353v-.038zm5.425 4.295c-1.47-.34-2.637-1.281-3.918-2.034-1.356-.792-2.826-1.319-4.295-1.884-.829-.34-1.657-.678-2.41-1.092v.075a14.21 14.21 0 002.147 1.055c.715.301 1.469.565 2.222.904.716.301 1.47.64 2.148 1.055.64.376 1.243.79 1.845 1.205.716.414 1.432.791 2.26.942.076 0 .076-.15 0-.189v-.037zm-9.757-6.593a3.7 3.7 0 01.64.415c.415.301.754.715 1.055 1.13.301.377.64.753 1.017 1.092.377.302.753.64 1.206.829.037 0 0-.075 0-.113-.415-.301-.867-.603-1.244-.942a9.198 9.198 0 01-1.017-1.092c-.301-.377-.64-.754-1.017-1.055a3.739 3.739 0 00-.64-.414 5.325 5.325 0 00-.678-.302v.075c.226.151.452.264.678.415v-.038zm.112 2.713v.075c.83.339 1.696.678 2.6.828v-.037c-.866-.264-1.733-.528-2.6-.867zm0 5.424c-.677-.075-1.393-.037-2.034-.226-.565-.15-1.13-.414-1.544-.828.414.49.942.753 1.544.904.679.15 1.357.226 2.072.15h-.037zm3.203 1.206a2.624 2.624 0 00-.716-.226c-.264 0-.49 0-.753.037-.49.076-.98.264-1.432.49-.49.226-.98.49-1.507.64-.263.076-.527.151-.79.151h-.83v.075c.49.189 1.018.076 1.507-.037.528-.15.98-.377 1.47-.603.49-.226.979-.452 1.469-.565.49-.113 1.092-.15 1.582 0v.038zm-5.575.15c-.302-.15-.64-.263-.942-.376.339.15.64.263.942.414v-.038zm.188 2.45s0 .037 0 0c.264-.377.603-.679.98-.943a4.52 4.52 0 011.205-.602 3.585 3.585 0 00-2.185 1.507v.037zm3.428-1.546c2.11-.376 4.257 0 6.404.076.603 0 1.243.038 1.846-.076.038 0 .038-.113 0-.113h-1.62c-.527 0-1.055-.037-1.582-.075-1.055-.075-2.147-.15-3.202-.113-.603 0-1.206.113-1.808.302h-.038z" fill="#45504B" stroke-width=".25" stroke-linecap="round" stroke-linejoin="round"/><path d="M17.819 31.832c-1.357.151-2.675.679-3.843 1.357a16.034 16.034 0 011.846-.791c.64-.227 1.318-.377 1.997-.528v-.075.037zm4.445.754a6.37 6.37 0 01-1.093.904c-.414.264-.829.452-1.243.678-.942.528-1.846 1.13-2.637 1.846.866-.64 1.77-1.28 2.75-1.77l.226-.114c-.264.226-.452.49-.64.792 0 0 0 .075 0 0 .226-.34.49-.603.753-.904.716-.34 1.47-.754 1.921-1.432v-.075l-.037.075zm-4.445 2.787c-.189 0-.415.038-.603.075-.189 0-.415.076-.603.113-.339.076-.716.151-1.017.34.339-.151.716-.189 1.092-.264.189 0 .377-.076.603-.076.188 0 .377-.075.565-.113v-.075h-.038zm11.941-.489c.791.15 1.47.603 2.11 1.055.339.226.64.452.98.602.15.076.338.189.527.226.15.076.376.151.527.151v-.113l-.565-.226c-.188-.075-.377-.15-.527-.264-.34-.188-.678-.414-.98-.602-.64-.415-1.318-.83-2.072-.904v.075zm-3.804-.678c-.227.113-.49.188-.754.188s-.527-.075-.753-.188a1.3 1.3 0 001.506.075v-.075zm.376.187v.113l-.113.114v.037l.075-.113s.038-.075.076-.113l-.038-.038zm4.219 1.207c.264.225.528.451.791.64v-.038a11.028 11.028 0 00-.79-.603zm4.37-3.58c-.414 0-.829.038-1.205.113-.415.038-.829.076-1.206.189v.038c.377 0 .754-.076 1.093-.113.339 0 .715-.076 1.054-.076.716 0 1.432 0 2.148.113 1.28.226 2.448.867 3.692 1.281.339.113.64.226.979.264.34.075.716.113 1.055.075v-.075a8.814 8.814 0 01-.98-.15c-.301-.076-.64-.152-.941-.265-.603-.188-1.206-.452-1.809-.678-.602-.226-1.168-.452-1.808-.602-.716-.151-1.431-.189-2.147-.189l.075.075zm2.939-.64c1.017.113 2.072.226 3.089.34.527.037 1.017.112 1.544.15.49.037.98.113 1.507.113.264 0 .527 0 .829-.076.263 0 .565-.075.79-.188v-.113c-.225 0-.451.075-.677.113-.226.038-.49.075-.716.075-.49 0-.98 0-1.47-.075-1.016-.113-2.033-.188-3.05-.301-.566-.038-1.168-.075-1.733-.113l-.113.075z" fill="#45504B" stroke-width=".25" stroke-linecap="round" stroke-linejoin="round"/><path d="M36.918 32.7a5.012 5.012 0 010 0zm3.013 1.544c-.263-.189-.49-.377-.753-.566-.452-.376-.904-.753-1.47-.979v.038c.566.264 1.056.678 1.545 1.055.226.188.452.376.678.527.227.15.49.339.792.377v-.076c-.264-.113-.528-.226-.791-.414v.038zm.792-.491c-.264-.113-.528-.263-.791-.376v.037c.263.151.527.264.79.415.264.113.528.264.83.377v-.038a7.965 7.965 0 00-.792-.415h-.037zm-6.781-2.109c.301-.076.602-.076.866-.189v-.113c-.565 0-1.092.151-1.62.34-.49.188-1.017.451-1.544.451v.076c.527.037 1.017-.15 1.469-.302a6.43 6.43 0 01.791-.263h.038zm-1.771.113c.678-.377 1.394-.603 2.148-.791v-.076c-.377.038-.754.151-1.093.264-.377.15-.716.34-1.055.527v.076zm.489-.867c.867-.338 1.583-.941 2.374-1.468a9.08 9.08 0 012.75-1.244c.377-.113.791-.188 1.168-.3h.038s.339-.076.527-.114c.038 0 .038-.188 0-.15-.113 0-.188 0-.301.037l.226-.339a3 3 0 01.64-.565c-.264.075-.452.264-.64.49-.113.15-.189.301-.264.414-.414.075-.791.15-1.205.264-.49.15-.98.301-1.432.527-.904.377-1.695.98-2.486 1.545-.452.301-.904.64-1.356.866l-.038.038zm6.028.038c.528-.076 1.055-.189 1.582-.189.528 0 1.018.076 1.507.151.942.15 1.922.339 2.826-.038.037 0 0-.15 0-.113-.942.34-1.922.226-2.863.076-.49-.076-.98-.151-1.47-.151-.527 0-1.017.113-1.544.226v.038h-.038z" fill="#45504B" stroke-width=".25" stroke-linecap="round" stroke-linejoin="round"/><path d="M38.048 28.215c.98.113 2.072-.037 2.938-.527.377-.226.716-.527 1.055-.791.15-.113.34-.226.528-.34.188-.112.414-.112.602-.188v-.075c-.188-.038-.414.038-.565.113-.188.075-.339.188-.527.302-.34.263-.64.564-1.017.79-.904.528-1.96.716-2.976.679l-.038.037z" fill="#45504B" stroke-width=".25" stroke-linecap="round" stroke-linejoin="round"/></g><defs><clipPath id="clip0_595_8039"><path fill="#fff" d="M0 0h55v55H0z"/></clipPath></defs></svg>