<svg width="62" height="62" fill="none" xmlns="http://www.w3.org/2000/svg"><path d="M54.25 18.083V15.5a5.167 5.167 0 00-5.167-5.167h-7.75l6.459 3.875m6.458 29.709V46.5a5.166 5.166 0 01-5.167 5.167h-7.75l6.459-3.875M23.252 31h-.002m18.083 0H54.25m0 0l-5.167-5.167M54.25 31l-5.167 5.167M11.431 50.189l15.5 4.65a5.167 5.167 0 006.652-4.95V12.111a5.166 5.166 0 00-6.652-4.95l-15.5 4.65a5.167 5.167 0 00-3.681 4.95v28.478a5.167 5.167 0 003.681 4.95z" stroke="#FF4040" stroke-width="3" stroke-linecap="round" stroke-linejoin="round"/></svg>