<svg width="41" height="42" fill="none" xmlns="http://www.w3.org/2000/svg"><rect x=".5" y=".5" width="40" height="41" rx="20" fill="#fff" fill-opacity=".5" stroke="#3D3D3D"/><path d="M24.676 17.333v-1.802c0-.562-.108-1.118-.318-1.637a4.272 4.272 0 00-.905-1.388 4.171 4.171 0 00-1.355-.928 4.09 4.09 0 00-3.196 0 4.16 4.16 0 00-1.355.928 4.287 4.287 0 00-.905 1.388 4.37 4.37 0 00-.318 1.637v4.277c0 .162.063.318.175.433a.59.59 0 00.843 0 .619.619 0 00.175-.433v-1.252h4.773v-1.223h-4.773v-1.802c0-.81.314-1.588.874-2.161a2.947 2.947 0 012.109-.895c.791 0 1.55.322 2.11.895.559.573.873 1.35.873 2.16v4.248c0 .162.063.317.174.432a.59.59 0 00.844 0 .619.619 0 00.175-.432v-1.222h2.983v11H13.34v-11h1.79v-1.223h-2.983v12.278c0 .31.12.606.334.825.213.219.503.342.806.342h14.424c.303 0 .592-.123.806-.342.214-.219.334-.516.334-.825V17.333h-4.176z" fill="#3D3D3D"/></svg>