<svg width="52" height="56" fill="none" xmlns="http://www.w3.org/2000/svg"><path d="M15.6 11.286V5.714c0-.985.365-1.93 1.015-2.626A3.354 3.354 0 0119.066 2h13.867c.92 0 1.801.391 2.451 1.088A3.853 3.853 0 0136.4 5.714v5.572M5.2 16.827v33.459c0 .985.365 1.93 1.015 2.626A3.354 3.354 0 008.666 54h34.667a3.35 3.35 0 002.451-1.088 3.853 3.853 0 001.016-2.626V16.827" stroke="#FF4040" stroke-width="3.5"/><path stroke="#FF4040" stroke-width="3" stroke-linecap="round" d="M17.435 32.256v10.479m17.614-10.479v10.479M25.823 23.27v19.465"/><path stroke="#FF4040" stroke-width="3.5" stroke-linecap="round" d="M50.25 16.331H1.75"/></svg>