<svg width="21" height="20" viewBox="0 0 21 20" fill="none" xmlns="http://www.w3.org/2000/svg">
<path d="M14.3888 6.66669V5.0278C14.3888 4.51711 14.2882 4.01141 14.0928 3.53959C13.8974 3.06777 13.6109 2.63906 13.2498 2.27795C12.8887 1.91683 12.46 1.63037 11.9882 1.43494C11.5163 1.2395 11.0106 1.13892 10.4999 1.13892C9.98925 1.13892 9.48355 1.2395 9.01173 1.43494C8.53991 1.63037 8.1112 1.91683 7.75009 2.27795C7.38897 2.63906 7.10252 3.06777 6.90708 3.53959C6.71165 4.01141 6.61106 4.51711 6.61106 5.0278V8.91669C6.61106 9.06404 6.66959 9.20534 6.77377 9.30953C6.87796 9.41372 7.01927 9.47225 7.16661 9.47225C7.31395 9.47225 7.45526 9.41372 7.55945 9.30953C7.66364 9.20534 7.72217 9.06404 7.72217 8.91669V7.7778H12.1666V6.66669H7.72217V5.0278C7.72217 4.29109 8.01482 3.58455 8.53576 3.06362C9.05669 2.54269 9.76323 2.25003 10.4999 2.25003C11.2367 2.25003 11.9432 2.54269 12.4641 3.06362C12.9851 3.58455 13.2777 4.29109 13.2777 5.0278V8.88892C13.2777 9.03626 13.3363 9.17757 13.4404 9.28175C13.5446 9.38594 13.6859 9.44447 13.8333 9.44447C13.9806 9.44447 14.1219 9.38594 14.2261 9.28175C14.3303 9.17757 14.3888 9.03626 14.3888 8.88892V7.7778H17.1666V17.7778H3.83328V7.7778H5.49995V6.66669H2.72217V17.8278C2.72217 18.1092 2.83396 18.3791 3.03296 18.5781C3.23196 18.7771 3.50185 18.8889 3.78328 18.8889H17.2166C17.498 18.8889 17.7679 18.7771 17.9669 18.5781C18.1659 18.3791 18.2777 18.1092 18.2777 17.8278V6.66669H14.3888Z" fill="#FEFEFE"/>
</svg>
