<svg width="16" height="10" viewBox="0 0 16 10" fill="none" xmlns="http://www.w3.org/2000/svg">
<path fill-rule="evenodd" clip-rule="evenodd" d="M5.96376e-08 5C6.13948e-08 5.14732 0.0601988 5.28861 0.167356 5.39278C0.274512 5.49695 0.419849 5.55548 0.571392 5.55548L14.0482 5.55548L10.4519 9.05054C10.3446 9.15485 10.2843 9.29631 10.2843 9.44382C10.2843 9.59133 10.3446 9.7328 10.4519 9.8371C10.5592 9.9414 10.7047 10 10.8564 10C11.0082 10 11.1537 9.9414 11.261 9.8371L15.8321 5.39328C15.8853 5.34168 15.9276 5.28038 15.9564 5.2129C15.9852 5.14541 16 5.07306 16 5C16 4.92694 15.9852 4.85459 15.9564 4.7871C15.9276 4.71962 15.8853 4.65832 15.8321 4.60672L11.261 0.162901C11.2079 0.111255 11.1448 0.0702874 11.0754 0.0423367C11.006 0.0143861 10.9316 6.04269e-08 10.8564 6.13227e-08C10.7047 6.31317e-08 10.5592 0.0585972 10.4519 0.162901C10.3446 0.267205 10.2843 0.408671 10.2843 0.556179C10.2843 0.703687 10.3446 0.845154 10.4519 0.949458L14.0482 4.44452L0.571392 4.44452C0.419849 4.44452 0.274512 4.50305 0.167356 4.60722C0.0601988 4.71139 5.78804e-08 4.85268 5.96376e-08 5Z" fill="#3D3D3D"/>
</svg>
