<svg width="28" height="28" viewBox="0 0 28 28" fill="none" xmlns="http://www.w3.org/2000/svg">
<path d="M19.4444 9.33337V7.03893C19.4444 6.32395 19.3036 5.61598 19.03 4.95543C18.7564 4.29488 18.3553 3.69469 17.8498 3.18912C17.3442 2.68356 16.744 2.28252 16.0835 2.00892C15.4229 1.73531 14.7149 1.59448 14 1.59448C13.285 1.59448 12.577 1.73531 11.9165 2.00892C11.2559 2.28252 10.6557 2.68356 10.1502 3.18912C9.64461 3.69469 9.24357 4.29488 8.96996 4.95543C8.69635 5.61598 8.55553 6.32395 8.55553 7.03893V12.4834C8.55553 12.6896 8.63747 12.8875 8.78333 13.0333C8.9292 13.1792 9.12703 13.2611 9.33331 13.2611C9.53959 13.2611 9.73742 13.1792 9.88328 13.0333C10.0291 12.8875 10.1111 12.6896 10.1111 12.4834V10.8889H16.3333V9.33337H10.1111V7.03893C10.1111 6.00753 10.5208 5.01838 11.2501 4.28907C11.9794 3.55976 12.9686 3.15004 14 3.15004C15.0314 3.15004 16.0205 3.55976 16.7498 4.28907C17.4791 5.01838 17.8889 6.00753 17.8889 7.03893V12.4445C17.8889 12.6508 17.9708 12.8486 18.1167 12.9945C18.2625 13.1403 18.4604 13.2223 18.6666 13.2223C18.8729 13.2223 19.0707 13.1403 19.2166 12.9945C19.3625 12.8486 19.4444 12.6508 19.4444 12.4445V10.8889H23.3333V24.8889H4.66664V10.8889H6.99997V9.33337H3.11108V24.9589C3.11108 25.3529 3.2676 25.7308 3.54619 26.0094C3.82479 26.288 4.20265 26.4445 4.59664 26.4445H23.4033C23.7973 26.4445 24.1752 26.288 24.4538 26.0094C24.7323 25.7308 24.8889 25.3529 24.8889 24.9589V9.33337H19.4444Z" fill="#3D3D3D"/>
<path d="M13.9526 22.099C13.3292 22.099 12.8122 21.956 12.4016 21.67C11.9982 21.384 11.6976 20.955 11.4996 20.383C11.3089 19.811 11.2136 19.0923 11.2136 18.227C11.2136 17.3323 11.3162 16.5917 11.5216 16.005C11.7269 15.411 12.0459 14.9673 12.4786 14.674C12.9112 14.3733 13.4539 14.223 14.1066 14.223C14.7446 14.223 15.2579 14.3587 15.6466 14.63C16.0426 14.9013 16.3286 15.3157 16.5046 15.873C16.6879 16.4303 16.7796 17.138 16.7796 17.996C16.7796 18.9053 16.6769 19.6643 16.4716 20.273C16.2662 20.8817 15.9509 21.34 15.5256 21.648C15.1076 21.9487 14.5832 22.099 13.9526 22.099ZM13.9856 21.395C14.4109 21.395 14.7592 21.274 15.0306 21.032C15.3019 20.79 15.5036 20.427 15.6356 19.943C15.7676 19.4517 15.8372 18.832 15.8446 18.084C15.8519 17.3067 15.7896 16.6907 15.6576 16.236C15.5256 15.774 15.3276 15.4403 15.0636 15.235C14.7996 15.0297 14.4696 14.927 14.0736 14.927C13.6336 14.927 13.2706 15.048 12.9846 15.29C12.6986 15.5247 12.4859 15.884 12.3466 16.368C12.2146 16.8447 12.1486 17.4497 12.1486 18.183C12.1486 18.9163 12.2146 19.5213 12.3466 19.998C12.4786 20.4673 12.6802 20.8193 12.9516 21.054C13.2229 21.2813 13.5676 21.395 13.9856 21.395Z" fill="#3D3D3D"/>
</svg>
