<svg width="7" height="12" viewBox="0 0 7 12" fill="none" xmlns="http://www.w3.org/2000/svg">
<path d="M0.325506 0.332879C0.238284 0.422177 0.189453 0.542052 0.189453 0.666879C0.189453 0.791706 0.238284 0.911581 0.325506 1.00088L5.19851 5.99988L0.325506 10.9979C0.238284 11.0872 0.189453 11.207 0.189453 11.3319C0.189453 11.4567 0.238284 11.5766 0.325506 11.6659C0.367902 11.7094 0.418592 11.744 0.474583 11.7677C0.530574 11.7913 0.590732 11.8035 0.651506 11.8035C0.71228 11.8035 0.772438 11.7913 0.828429 11.7677C0.88442 11.744 0.93511 11.7094 0.977506 11.6659L6.15951 6.34888C6.25052 6.2555 6.30146 6.13027 6.30146 5.99988C6.30146 5.86948 6.25052 5.74425 6.15951 5.65088L0.977506 0.333879C0.93511 0.290336 0.88442 0.255727 0.828429 0.232095C0.772438 0.208464 0.71228 0.196289 0.651506 0.196289C0.590732 0.196289 0.530574 0.208464 0.474583 0.232095C0.418592 0.255727 0.367902 0.290336 0.325506 0.333879V0.332879Z" fill="black"/>
</svg>
