<svg width="18" height="18" viewBox="0 0 18 18" fill="none" xmlns="http://www.w3.org/2000/svg">
<path d="M17.3508 1.14921L17.2803 1.21974L17.3508 1.14921C17.2718 1.0702 17.178 1.00753 17.0748 0.964768C16.9715 0.922008 16.8609 0.9 16.7491 0.9C16.6374 0.9 16.5268 0.922008 16.4235 0.964768C16.3203 1.00753 16.2265 1.0702 16.1475 1.14921L16.1475 1.14922L9.25 8.04819L2.35252 1.14922L2.35251 1.14921C2.2735 1.0702 2.1797 1.00753 2.07647 0.964768C1.97324 0.922008 1.8626 0.9 1.75086 0.9C1.63912 0.9 1.52848 0.922008 1.42525 0.964768C1.32202 1.00753 1.22822 1.0702 1.14921 1.14921C1.0702 1.22822 1.00753 1.32202 0.964768 1.42525C0.922008 1.52848 0.9 1.63912 0.9 1.75086C0.9 1.8626 0.922008 1.97324 0.964768 2.07647C1.00753 2.1797 1.0702 2.2735 1.14921 2.35251L1.14922 2.35252L8.04819 9.25L1.14922 16.1475L1.14921 16.1475C0.989644 16.3071 0.9 16.5235 0.9 16.7491C0.9 16.9748 0.989644 17.1912 1.14921 17.3508C1.30878 17.5104 1.5252 17.6 1.75086 17.6C1.97652 17.6 2.19294 17.5104 2.35251 17.3508L2.2818 17.2801L2.35252 17.3508L9.25 10.4518L16.1475 17.3508L16.2182 17.2801L16.1475 17.3508C16.3071 17.5104 16.5235 17.6 16.7491 17.6C16.9748 17.6 17.1912 17.5104 17.3508 17.3508C17.5104 17.1912 17.6 16.9748 17.6 16.7491C17.6 16.5235 17.5104 16.3071 17.3508 16.1475L17.2801 16.2182L17.3508 16.1475L10.4518 9.25L17.3508 2.35252L17.2801 2.2818L17.3508 2.35251C17.4298 2.2735 17.4925 2.1797 17.5352 2.07647C17.578 1.97324 17.6 1.8626 17.6 1.75086C17.6 1.63913 17.578 1.52848 17.5352 1.42525C17.4925 1.32202 17.4298 1.22822 17.3508 1.14921Z" fill="#B79172" stroke="#B79172" stroke-width="0.2"/>
</svg>
