<svg width="18" height="18" viewBox="0 0 18 18" fill="none" xmlns="http://www.w3.org/2000/svg">
<path d="M16.4465 1.55298C16.9601 2.06663 17.2487 2.76328 17.2487 3.48967C17.2487 4.21606 16.9601 4.9127 16.4465 5.42635L6.32925 15.545C5.89119 15.9842 5.34163 16.2956 4.73974 16.4456L1.60062 17.2294C1.48602 17.258 1.36597 17.2564 1.25214 17.2249C1.1383 17.1934 1.03455 17.133 0.95096 17.0496C0.867371 16.9661 0.80679 16.8625 0.775102 16.7487C0.743415 16.6349 0.741698 16.5149 0.770119 16.4002L1.55387 13.2611C1.70496 12.6593 2.01673 12.1099 2.45587 11.6716L12.5731 1.55435C13.0868 1.04074 13.7834 0.752197 14.5098 0.752197C15.2362 0.752197 15.9328 1.04074 16.4465 1.55435V1.55298ZM11.6037 4.45835L3.42387 12.6382C3.16066 12.9015 2.97389 13.2313 2.88349 13.5925L2.37612 15.6234L4.40699 15.1146C4.76862 15.0252 5.09862 14.8396 5.36124 14.5756L13.5411 6.39435L11.6037 4.45835ZM13.5425 2.5196L12.5731 3.48898L14.5091 5.42635L15.4785 4.45835C15.7356 4.20144 15.8801 3.85292 15.8802 3.48947C15.8804 3.12601 15.7361 2.77739 15.4792 2.52029C15.2223 2.2632 14.8738 2.11869 14.5103 2.11856C14.1468 2.11843 13.7982 2.26269 13.5411 2.5196H13.5425Z" fill="#1E4F48"/>
</svg>
