<svg width="17" height="12" viewBox="0 0 17 12" fill="none" xmlns="http://www.w3.org/2000/svg">
<path d="M10.0455 10.4348C10.2504 10.4348 10.4469 10.5172 10.5919 10.664C10.7368 10.8108 10.8182 11.0098 10.8182 11.2174C10.8182 11.425 10.7368 11.624 10.5919 11.7708C10.4469 11.9175 10.2504 12 10.0455 12H6.95455C6.74961 12 6.55306 11.9175 6.40814 11.7708C6.26323 11.624 6.18182 11.425 6.18182 11.2174C6.18182 11.0098 6.26323 10.8108 6.40814 10.664C6.55306 10.5172 6.74961 10.4348 6.95455 10.4348H10.0455ZM13.1364 5.21739C13.3413 5.21739 13.5379 5.29984 13.6828 5.44661C13.8277 5.59338 13.9091 5.79244 13.9091 6C13.9091 6.20756 13.8277 6.40662 13.6828 6.55339C13.5379 6.70016 13.3413 6.78261 13.1364 6.78261H3.86364C3.6587 6.78261 3.46215 6.70016 3.31724 6.55339C3.17232 6.40662 3.09091 6.20756 3.09091 6C3.09091 5.79244 3.17232 5.59338 3.31724 5.44661C3.46215 5.29984 3.6587 5.21739 3.86364 5.21739H13.1364ZM16.2273 0C16.4322 0 16.6288 0.0824531 16.7737 0.229221C16.9186 0.375988 17 0.575048 17 0.782609C17 0.990169 16.9186 1.18923 16.7737 1.336C16.6288 1.48276 16.4322 1.56522 16.2273 1.56522H0.772727C0.567787 1.56522 0.371241 1.48276 0.226326 1.336C0.081412 1.18923 0 0.990169 0 0.782609C0 0.575048 0.081412 0.375988 0.226326 0.229221C0.371241 0.0824531 0.567787 0 0.772727 0H16.2273Z" fill="#1E4F48"/>
</svg>
