<svg width="55" height="55" viewBox="0 0 55 55" fill="none" xmlns="http://www.w3.org/2000/svg">
<g clip-path="url(#clip0_595_8039)">
<path d="M27.5 54.6233C42.4798 54.6233 54.6233 42.4798 54.6233 27.5C54.6233 12.5202 42.4798 0.376709 27.5 0.376709C12.5202 0.376709 0.376709 12.5202 0.376709 27.5C0.376709 42.4798 12.5202 54.6233 27.5 54.6233Z" stroke="#45504B" stroke-miterlimit="10"/>
<path d="M48.1438 28.4418C48.0308 28.1781 47.8801 27.8767 47.7294 27.6507C47.5787 27.387 47.3904 27.1609 47.1644 26.9726C46.75 26.5959 46.2226 26.3322 45.6952 26.1438C45.0924 25.9555 44.452 25.8048 43.8116 25.8425C43.1335 25.9178 42.4931 26.1061 41.8527 26.2192C41.1746 26.3322 40.4965 26.4075 39.8185 26.4452C39.1404 26.4829 38.4623 26.4452 37.7842 26.5205C36.5034 26.6335 35.2979 27.0479 34.2055 27.6883C34.3561 27.274 34.4692 26.8596 34.5068 26.4452H34.5822C35.1472 25.9931 35.75 25.5411 36.3527 25.1644C36.6541 24.976 36.9931 24.7877 37.2945 24.637C37.5959 24.4863 37.9349 24.3356 38.2363 24.1849C38.5376 24.0342 38.8013 23.8082 39.0274 23.5445C39.2534 23.2808 39.5171 23.0548 39.7808 22.8288C40.3082 22.452 40.7602 22.0377 41.1746 21.5103C41.5513 21.0205 41.8527 20.4555 42.0411 19.8527C42.1541 19.5514 42.2294 19.2123 42.2671 18.8733C42.2671 18.5719 42.2671 18.3082 42.1541 18.0445C42.1541 18.0445 42.1164 17.9315 42.0787 17.8561C41.8904 17.5171 41.702 17.2157 41.476 16.9144C41.3253 16.6507 41.1746 16.387 40.9109 16.1986C40.6096 15.9726 40.3082 16.0103 39.9692 16.0479L38.7637 16.1986L38.1986 16.274C38.1986 16.274 37.8219 16.3493 37.6712 16.274C37.5582 16.1986 37.4828 16.0479 37.3698 15.9726C37.2945 15.8972 37.1815 15.8219 37.0308 15.7842C36.5034 15.6335 35.9383 15.9349 35.4486 15.7089C35.1849 15.5959 35.0342 15.3322 34.8835 15.1062C34.7329 14.8801 34.5445 14.6541 34.2808 14.5411C34.0171 14.4281 33.7157 14.3151 33.4897 14.1267C33.2637 13.9383 33.113 13.75 32.9246 13.524C32.5479 13.1096 32.1335 12.6952 31.5308 12.6952C30.8527 12.6952 30.2123 13.1096 29.6472 13.4486C28.4794 14.1644 27.3116 14.9555 26.6335 16.1609C26.3322 16.726 26.1061 17.4041 26.1438 18.0445C26.1438 18.4589 26.2192 18.8356 26.2568 19.2123C26.2568 19.589 26.2568 19.9657 26.2568 20.3801C26.2192 20.7568 26.1815 21.1335 26.1815 21.5103C26.1815 21.887 26.1815 22.3014 26.2568 22.6781C26.3322 23.4315 26.5205 24.1849 26.7089 24.9383C26.7465 25.089 26.7842 25.2774 26.8596 25.4281C26.7465 25.1644 26.5959 24.9007 26.4075 24.637C26.1061 24.1472 25.7294 23.6952 25.2397 23.4315C25.1644 23.4315 25.1267 23.3561 25.0513 23.3561C25.1267 22.7157 24.9383 22.113 24.7123 21.5479C24.5993 21.2089 24.4486 20.8322 24.3356 20.4931C24.2226 20.1164 24.1849 19.7397 24.0719 19.363C23.7705 17.9692 22.9041 16.839 22.0376 15.7466C21.2842 14.8048 20.3424 13.7877 19.0993 13.524C18.3459 13.3733 17.5924 13.524 16.8767 13.7123C16.5753 13.7877 16.2739 13.9007 16.0103 14.089C15.7466 14.2774 15.5959 14.5788 15.4452 14.8801C15.2945 15.1438 15.1438 15.4075 14.9555 15.6335C14.7671 15.8596 14.5787 16.0856 14.4281 16.3493C14.2774 16.613 14.2397 16.8767 14.2774 17.1404C14.2774 17.2911 14.3904 17.4794 14.315 17.6301C14.2397 17.7808 14.0137 17.9315 13.9007 18.0068C13.2979 18.4589 12.7329 18.9486 12.0171 19.2123C11.4144 19.4383 10.7739 19.6267 10.2466 20.0034C9.30477 20.7192 9.19176 22 9.64381 23.0171C10.1335 24.1849 11.3767 24.8253 12.5068 25.1644C13.2226 25.3527 13.9383 25.4657 14.6541 25.6164C15.3322 25.8048 15.9726 26.1061 16.5753 26.4452C17.1781 26.7842 17.7431 27.1609 18.3835 27.4623C18.9863 27.7637 19.6267 27.9144 20.2294 28.1781C20.3424 28.2157 20.4555 28.2911 20.5685 28.3664C20.2671 28.3664 20.0034 28.4041 19.7397 28.5171C19.0993 28.2157 18.4589 27.8767 17.7808 27.6883C17.065 27.5 16.3116 27.4246 15.5959 27.4246C14.8424 27.4246 14.089 27.4623 13.3356 27.4246C12.9589 27.4246 12.5822 27.387 12.2055 27.274C11.8664 27.1986 11.6027 27.0103 11.2637 26.8596C10.9623 26.7089 10.6609 26.6712 10.3219 26.7089C10.0205 26.7466 9.71916 26.8972 9.45546 27.0856C8.92806 27.5 8.58902 28.1027 8.32532 28.7055C8.06162 29.3082 7.87326 29.9863 7.98628 30.6644C8.02395 30.9657 8.13696 31.3048 8.28765 31.5685C8.43833 31.8322 8.66436 32.0582 8.89039 32.2842C9.15409 32.5479 9.38011 32.8116 9.49313 33.1883C9.60614 33.4897 9.75683 33.8664 10.0582 34.0548C10.3972 34.2431 10.7739 34.0548 11.1507 33.9794C11.4897 33.9041 11.8287 33.9041 12.1678 33.8664C11.9418 34.2055 11.7534 34.5445 11.7157 34.9589C11.6404 35.3733 11.7157 35.8253 12.0171 36.1644C12.6952 36.9555 13.9007 36.3527 14.7671 36.5411C15.0308 36.5788 15.2945 36.6918 15.5582 36.7294C15.8219 36.8048 16.1233 36.8048 16.387 36.8048C16.952 36.8048 17.4794 36.6541 18.0068 36.4657C18.5342 36.2774 19.0616 36.0137 19.589 35.7877C20.1164 35.5616 20.6061 35.2979 21.0959 34.9966C21.7739 34.5822 22.4144 33.9794 23.1301 33.6027C23.4692 34.2431 24.1472 34.6575 24.863 34.7705C25.2774 34.8082 25.7294 34.8459 26.0685 35.0719C26.3698 35.2979 26.5582 35.5993 26.9349 35.7123C27.0102 36.2397 27.0856 36.7671 27.1609 37.3322C27.3116 38.613 27.5 39.8561 27.6507 41.137C27.8013 42.1541 27.9144 43.2466 27.5376 44.226C27.5376 44.3014 27.5 44.452 27.5753 44.4897C27.839 44.6404 28.1404 44.6781 28.4418 44.6027C28.4794 44.6027 28.5171 44.5274 28.5171 44.4897C28.6678 41.589 28.2911 38.6883 27.952 35.7877V35.4109L31.5308 37.1438C32.0959 37.4075 32.6609 37.7089 33.226 37.8972C33.7911 38.0856 34.3938 38.1986 34.9965 38.274C35.6746 38.3493 36.3904 38.3493 37.1061 38.387C37.2192 38.387 37.2945 38.274 37.2192 38.1609C36.9555 37.7842 36.6918 37.4452 36.5034 37.0308C36.2774 36.6164 36.202 36.1644 36.0137 35.75C35.6746 34.9589 34.8835 34.5822 34.1678 34.2055C33.7534 33.9794 33.3013 33.7534 32.8493 33.5651C33.1883 33.339 33.565 33.1507 33.9794 33.0377C34.0171 33.0377 34.0548 33.0377 34.0548 32.9623H34.1301C35.1472 33.1883 36.1644 33.5274 37.1061 33.9794C37.5959 34.2055 38.0479 34.4692 38.5 34.6952C38.9897 34.9212 39.4794 35.0342 40.0068 35.1096C40.5719 35.1849 41.137 35.2226 41.6644 35.2603C42.1541 35.2603 42.6061 35.2603 43.0959 35.2603C43.9246 35.2226 44.8287 34.9966 45.4315 34.3938C45.8082 34.0548 46.0342 33.6027 46.4109 33.2637C46.5993 33.113 46.7876 32.9623 46.976 32.8493C47.1267 32.774 47.3904 32.6609 47.3527 32.4349C47.3527 32.3219 47.2397 32.2466 47.202 32.1335L46.976 31.7945C46.8253 31.5685 46.637 31.3425 46.4863 31.1164L46.4109 31.0411C46.7123 30.5514 47.089 30.0993 47.5411 29.7226C47.7671 29.5342 47.9931 29.3835 48.1815 29.1952C48.3698 28.9692 48.4075 28.6678 48.2945 28.4041L48.1438 28.4418ZM47.2774 27.5C47.089 27.5 46.9007 27.5753 46.7123 27.613C46.4863 27.613 46.2226 27.6507 45.9965 27.6883C45.5822 27.6883 45.2055 27.6883 44.7911 27.6883C45.3185 27.4623 45.8082 27.0856 46.1096 26.5959C46.2226 26.6712 46.3733 26.7089 46.4863 26.7842C46.8253 26.9726 47.089 27.2363 47.315 27.5H47.2774ZM27.2363 25.9931C26.8219 24.5616 26.4075 23.0925 26.4452 21.5856C26.4452 20.8322 26.6335 20.0788 26.5582 19.3253C26.5205 18.6096 26.3698 17.9315 26.5582 17.2157C26.8972 15.9349 27.8767 14.9555 28.9692 14.202C28.9692 14.4281 29.0822 14.6164 29.1575 14.8048C29.2328 14.9931 29.2705 15.2192 29.3459 15.4075C29.4589 15.8219 29.4589 16.274 29.5342 16.726C29.5719 17.1404 29.6849 17.5171 29.8356 17.8938C29.9863 18.3082 30.137 18.7226 30.2876 19.0993C30.1746 18.6472 30.0239 18.2329 29.8733 17.7808C29.7226 17.3664 29.6096 16.952 29.5719 16.5377C29.5342 16.1233 29.4965 15.7466 29.3835 15.3322C29.3459 15.1062 29.2705 14.9178 29.1952 14.6918L29.0822 14.3904C29.0822 14.3904 29.0445 14.2397 29.0068 14.202C29.2705 14.0137 29.5719 13.8253 29.8356 13.6746C30.137 13.4863 30.4383 13.2979 30.7397 13.1849C31.0411 13.0342 31.4178 12.9212 31.7568 12.9966C32.0205 13.0342 32.2465 13.1849 32.4349 13.3733C32.8116 13.7123 33.113 14.1644 33.565 14.4657C33.6404 14.5034 33.7157 14.5411 33.7534 14.5788C33.7534 14.9931 33.7534 15.4075 33.7534 15.8219C33.7534 15.8972 33.7157 15.9726 33.6781 16.0479C33.6781 16.0479 33.6781 16.1233 33.6781 16.0856V15.9726H33.7157V15.8972C33.7157 15.8972 33.7534 15.7842 33.7911 15.7089C33.7911 15.6335 33.7911 15.5959 33.7911 15.5205C33.7911 15.4452 33.7911 15.4075 33.7911 15.3322C33.7911 15.4075 33.7911 15.4452 33.7911 15.5205V15.6335C33.7911 15.2945 33.7911 14.9178 33.7911 14.5788C33.9794 14.6541 34.1678 14.7294 34.3561 14.8425C34.5822 14.9931 34.7329 15.2192 34.8835 15.4452C35.0342 15.6712 35.2226 15.8596 35.4486 15.9349C35.6746 16.0479 35.9383 16.0103 36.202 16.0103C36.4657 16.0103 36.7294 15.9349 36.9555 16.0103C37.0685 16.0103 37.1815 16.0856 37.2568 16.1986C37.3698 16.3116 37.4075 16.4246 37.5582 16.5C37.5205 16.613 37.4828 16.7637 37.4452 16.8767C37.3698 17.0274 37.2568 17.2157 37.1438 17.3664C36.8801 17.7055 36.5411 17.9315 36.1644 18.0822C35.7876 18.2329 35.4109 18.3835 35.0719 18.6096C34.7329 18.8356 34.4315 19.0616 34.1678 19.363V19.4383C34.4692 19.137 34.8082 18.8733 35.1849 18.6849C35.5616 18.4589 35.976 18.3082 36.3904 18.1198C36.7294 17.9692 37.0308 17.7055 37.2192 17.4041C37.4075 17.1404 37.5582 16.839 37.5959 16.5377C37.8596 16.6507 38.2363 16.5377 38.5 16.5377L39.6301 16.387C39.6301 16.387 40.0068 16.3493 40.1952 16.3116C40.3459 16.3116 40.5342 16.3116 40.6849 16.3493C40.9486 16.5 41.0993 16.839 41.25 17.0651C41.4383 17.3664 41.6644 17.6678 41.815 18.0068C41.815 18.0445 41.8527 18.0822 41.8904 18.1198H41.7774C41.7774 18.1198 41.5513 18.2705 41.4007 18.3082C41.137 18.4212 40.9109 18.5719 40.6472 18.7226V18.7979C40.9109 18.6849 41.137 18.5719 41.4007 18.4589C41.5137 18.4212 41.6644 18.3459 41.7774 18.3082L41.9281 18.2329C41.9281 18.2329 42.0034 18.4589 42.0034 18.5719C42.0034 18.6096 41.9657 18.6849 41.9281 18.7226C41.8527 18.8356 41.7774 18.9109 41.6644 18.9863C41.4383 19.1746 41.2123 19.3253 41.0239 19.5137C41.25 19.4007 41.5137 19.25 41.7397 19.0616C41.8527 18.9863 41.9657 18.8733 42.0411 18.7603C42.0411 18.8356 42.0411 18.9486 42.0411 19.0616C41.9281 19.6644 41.702 20.2671 41.4007 20.7945C41.2123 21.1335 40.9863 21.4349 40.7602 21.6986C40.5719 21.6986 40.3835 21.774 40.1952 21.8493C40.0068 21.9623 39.8185 22.0753 39.6301 22.1883C39.2911 22.452 38.952 22.7157 38.5753 22.9418C38.1609 23.2055 37.7089 23.3561 37.2568 23.5068C36.7294 23.6575 36.1644 23.7705 35.6746 23.9966V24.0719C36.2397 23.9966 36.7671 23.8082 37.3322 23.6575C37.7842 23.5445 38.1986 23.3938 38.5753 23.1678C38.952 22.9418 39.2534 22.6781 39.6301 22.4144C39.8185 22.3014 40.0068 22.1883 40.1952 22.0753C40.3459 22 40.5342 21.9246 40.6849 21.8493C40.5719 22 40.4212 22.113 40.2705 22.226C40.0068 22.452 39.7431 22.6027 39.5171 22.8288C39.2534 23.0548 39.065 23.2808 38.839 23.5445C38.613 23.8082 38.3116 23.9589 38.0102 24.1096C37.7089 24.2603 37.3698 24.4109 37.0685 24.5616C36.4657 24.9007 35.863 25.2397 35.2979 25.6541C35.0719 25.8048 34.8835 25.9555 34.6575 26.1438C34.6575 26.0308 34.6575 25.8801 34.6575 25.7294C34.6575 25.6918 34.6575 25.4657 34.5445 25.4657C34.2055 25.5411 33.8664 25.6164 33.565 25.7294C33.6404 25.6164 33.7534 25.5034 33.8287 25.3904C34.0171 25.1644 34.2055 24.976 34.4315 24.8253C34.8459 24.4863 35.2979 24.1849 35.7876 23.8835C36.2774 23.5822 36.7671 23.2808 37.2192 22.9418C37.7465 22.5651 38.2739 22.1507 38.7637 21.6986C38.9144 21.5856 39.0274 21.4726 39.1781 21.3596C39.3287 21.2089 39.4794 21.0582 39.5924 20.9075C39.8561 20.6438 40.1575 20.3801 40.4212 20.1164C40.1575 20.3048 39.9315 20.5685 39.6678 20.7945C39.5548 20.9075 39.4418 20.9829 39.2911 21.0959C39.1404 21.2089 39.0274 21.3219 38.8767 21.4349C38.387 21.887 37.8596 22.3014 37.2945 22.6781C36.3527 23.3561 35.3356 23.8459 34.4692 24.5993C34.0548 24.9383 33.6781 25.3151 33.4144 25.8048C32.7739 26.0308 32.1712 26.3322 31.6061 26.7089C31.7945 26.4452 31.9828 26.1815 32.1712 25.9178C32.4349 25.5788 32.6609 25.2774 32.9246 24.976C33.4897 24.3356 34.0548 23.7329 34.6575 23.1301C35.2602 22.5274 35.863 21.9246 36.4281 21.2466L36.5034 21.1335C36.5034 21.1335 36.8424 20.9075 37.0308 20.7945C37.2192 20.6815 37.4075 20.6061 37.5959 20.5308C38.0102 20.3801 38.4246 20.2294 38.8013 20.0788C39.5924 19.7774 40.3082 19.363 40.7602 18.6472C40.9863 18.2705 41.1746 17.7808 41.1746 17.3664C41.1746 17.3664 41.1746 17.2911 41.1746 17.3664C41.137 17.5925 41.0993 17.8185 41.0239 18.0068C40.9486 18.1952 40.8733 18.4212 40.7602 18.6096C40.5342 18.9486 40.2328 19.25 39.8561 19.476C39.1781 19.8904 38.3493 20.1164 37.6335 20.4178C37.4452 20.4931 37.2192 20.6061 37.0308 20.7192C36.9555 20.7568 36.8424 20.8322 36.7294 20.9075C37.1438 20.3801 37.5582 19.8527 37.9726 19.3253C38.2363 18.9863 38.4623 18.6096 38.613 18.1952C38.7637 17.7808 38.8013 17.3288 38.8013 16.9144C38.8013 17.7808 38.4623 18.5342 37.9726 19.2123C37.5205 19.8527 36.9931 20.4931 36.4657 21.0959C35.9007 21.7363 35.2979 22.3767 34.6952 22.9794C34.0924 23.5445 33.5274 24.1472 33 24.7877C32.4349 25.4657 31.8698 26.1815 31.4178 26.9349C31.4178 26.9349 31.1541 27.1233 31.0411 27.1986C30.0239 27.9897 29.1575 28.9692 28.5171 30.0616C28.3287 30.363 28.1781 30.6644 28.0274 31.0034C28.1027 30.7774 28.1404 30.5514 28.1781 30.3253C28.2911 29.6849 28.2911 29.0445 28.1027 28.4418C27.9897 28.1404 27.8767 27.839 27.726 27.5377C27.5753 27.2363 27.4246 26.8972 27.3116 26.5959L27.1986 26.3698C27.1986 26.3698 27.3493 26.2945 27.3116 26.1815L27.2363 25.9931ZM19.5137 27.6883C18.8733 27.4623 18.3082 27.1986 17.7431 26.8972C17.1781 26.5582 16.613 26.2192 16.0103 25.9178C15.3698 25.6164 14.7294 25.3904 14.0513 25.2774C12.8082 25.0137 11.4897 24.7877 10.5103 23.8835C9.71916 23.1301 9.30477 21.887 9.83217 20.9075C10.1335 20.3425 10.6609 20.0788 11.226 19.8527C11.5274 19.7397 11.7911 19.6644 12.0924 19.5137C12.4315 19.363 12.7329 19.2123 13.0342 18.9863C13.3356 18.7979 13.5993 18.5719 13.9007 18.3459C14.1267 18.1575 14.5034 17.9692 14.5787 17.6678C14.5787 17.5171 14.5787 17.3664 14.5787 17.2157C14.5787 17.0651 14.5787 16.9144 14.5787 16.7637C14.6541 16.5 14.8048 16.274 14.9931 16.0856C15.1815 15.8596 15.3698 15.6712 15.5205 15.4075C15.6335 15.2192 15.7089 15.0308 15.8219 14.8425C16.1609 15.1815 16.5 15.4829 16.8013 15.8596C17.1027 16.274 17.2911 16.726 17.4794 17.2157C17.6678 17.6678 17.9692 18.0068 18.3459 18.3082C18.7226 18.6472 19.137 18.9486 19.476 19.3253C20.8698 20.7568 21.7363 22.6027 22.4897 24.4109C22.9041 25.3527 23.3185 26.4075 24.1472 27.0479C24.1849 27.0856 24.2226 26.9726 24.1472 26.9349C23.8082 26.5959 23.5068 26.2192 23.2431 25.7671C22.9794 25.3527 22.7911 24.9007 22.6027 24.4486C22.226 23.5445 21.8493 22.6404 21.3596 21.774C20.9452 21.0205 20.4931 20.3048 19.9281 19.6267V19.589C19.815 19.363 19.7397 19.1746 19.6644 18.9486C19.589 18.7226 19.5513 18.4966 19.5513 18.2705C19.5137 17.8185 19.476 17.3664 19.4007 16.9144C19.3253 16.4623 19.2123 16.0479 19.0239 15.6335C18.8356 15.2192 18.6472 14.8048 18.3459 14.4657C18.3459 14.4657 18.3459 14.5034 18.3459 14.5411C18.6096 14.9555 18.8356 15.3698 19.0239 15.8219C19.2123 16.274 19.3253 16.7637 19.363 17.2157C19.4383 17.6678 19.4383 18.1198 19.5137 18.5719C19.5513 18.8356 19.6267 19.1746 19.7397 19.4383C19.4007 19.0616 19.0616 18.7226 18.6849 18.4212C18.3082 18.1198 17.8938 17.8185 17.6301 17.3664C17.4794 17.1027 17.4041 16.839 17.2534 16.5377C17.1404 16.3116 17.0274 16.0856 16.8767 15.8596C16.726 15.6335 16.5376 15.4452 16.387 15.2568C16.2363 15.1062 16.0479 14.9178 15.8596 14.8048C15.8596 14.7294 15.9349 14.6918 15.9726 14.6164C16.1609 14.3527 16.4623 14.2397 16.7637 14.1267C17.1027 14.0137 17.4418 13.9383 17.8185 13.863C18.4966 13.75 19.1746 13.863 19.7774 14.1644C20.3048 14.4281 20.7945 14.8425 21.2089 15.2945C21.6609 15.7466 22.0376 16.274 22.4144 16.7637C22.8287 17.3288 23.2055 17.8938 23.5068 18.4966C23.8082 19.1746 23.8835 19.8904 24.0719 20.5685C24.2602 21.2466 24.5993 21.887 24.75 22.6027C24.8253 22.9418 24.8253 23.2808 24.75 23.6198C24.75 23.6198 24.75 23.6575 24.75 23.6952C24.637 24.0342 24.5239 24.3733 24.4486 24.6746C24.1472 25.9931 24.3733 27.3116 24.75 28.5925C24.976 29.3459 25.2397 30.0993 25.5034 30.8527C25.6164 31.1918 25.7294 31.4931 25.9178 31.7945C25.3527 31.3048 24.9383 30.6267 24.4486 30.0616C24.1096 29.6472 23.6952 29.3082 23.2055 29.0822C22.6027 28.8185 21.887 28.6678 21.2466 28.5548H21.1712C20.7192 28.1781 20.1918 27.952 19.6644 27.7637L19.5137 27.6883ZM18.6472 35.9383C17.6678 36.3527 16.613 36.7671 15.5205 36.5411C15.0308 36.4281 14.5787 36.2774 14.0513 36.3151C13.5993 36.3151 13.1096 36.4657 12.6575 36.3904C12.1678 36.3151 11.8664 35.9007 11.8287 35.4109C11.8287 34.8459 12.1301 34.3185 12.4315 33.9041C12.5445 33.7534 12.3561 33.5651 12.2431 33.7157C11.9041 33.7157 11.6027 33.7157 11.2637 33.7911C11.113 33.7911 10.9246 33.8288 10.7739 33.8664C10.5856 33.9041 10.4349 33.9794 10.2466 33.9794C9.90751 33.9794 9.75683 33.6027 9.68148 33.339C9.56847 33.0377 9.41779 32.774 9.22943 32.5479C8.85272 32.0959 8.40066 31.7192 8.21231 31.1164C8.02395 30.5137 8.13696 29.8356 8.36299 29.2329C8.58902 28.6678 8.89039 28.0274 9.34244 27.613C9.56847 27.387 9.86984 27.1986 10.1712 27.1233C10.5103 27.0479 10.8116 27.1233 11.0753 27.2363C11.3767 27.3493 11.6404 27.5377 11.9418 27.613C12.2808 27.726 12.5822 27.7637 12.9212 27.7637C13.4863 27.8014 14.0513 27.7637 14.5787 27.7637V27.839C15.2192 28.0651 15.8596 28.2534 16.4623 28.5548C17.065 28.8561 17.6301 29.2329 18.1575 29.6472C18.1575 29.6472 18.1575 29.6096 18.1575 29.5719C17.6301 29.1198 17.065 28.7055 16.4623 28.4041C15.8972 28.1027 15.2945 27.8767 14.6541 27.7637H14.9555C15.7466 27.7637 16.5376 27.7637 17.2911 27.952C17.9692 28.1027 18.6096 28.4041 19.2123 28.7055C19.137 28.7431 19.0616 28.8185 18.9863 28.8561C18.9109 28.9315 18.9109 29.1952 18.9863 29.2329C19.5137 29.5342 20.0411 29.7979 20.5308 30.1746C20.8322 30.4007 21.0959 30.6644 21.3596 30.9281C21.0959 30.9281 20.8322 30.9281 20.5685 30.9281C20.1541 30.9281 19.7774 30.8904 19.4007 30.8151C19.25 30.8151 19.137 30.7774 18.9863 30.7397C18.7979 30.5137 18.5342 30.363 18.3082 30.2123C18.0445 30.0616 17.8185 29.9109 17.5548 29.7603C17.0274 29.4966 16.4623 29.3082 15.8972 29.1198C14.7671 28.7808 13.5993 28.7055 12.4315 28.5171C11.7534 28.4041 11.0753 28.2534 10.4349 27.9897C10.4349 27.9897 10.4349 28.0274 10.4349 28.0651C11.4897 28.6301 12.6952 28.7055 13.863 28.8561C15.0685 29.0068 16.1986 29.3082 17.2911 29.8356C17.5924 29.9863 17.8561 30.137 18.1198 30.2877C18.3082 30.4007 18.4589 30.5137 18.6472 30.6267C18.1575 30.476 17.7055 30.3253 17.2157 30.1746C16.5376 29.9486 15.8596 29.7226 15.1438 29.6096C14.4281 29.4966 13.75 29.5342 13.0342 29.7226C12.2808 29.9109 11.565 30.25 11 30.7774C11 30.7774 11 30.8527 11 30.8151C12.1678 29.9863 13.5616 29.5719 14.9555 29.7603C16.4246 29.9486 17.7431 30.6644 19.2123 31.0034C19.6267 31.1164 20.0411 31.1541 20.4931 31.1918C20.8322 31.1918 21.2089 31.1918 21.5856 31.1918C21.6986 31.3048 21.7739 31.4178 21.887 31.5308C22.0753 31.7568 22.226 31.9452 22.3767 32.1712C22.0376 32.2466 21.6986 32.3972 21.3596 32.4726C21.0205 32.5479 20.7192 32.6233 20.3801 32.6986C19.6644 32.8493 18.9863 32.9246 18.2705 33C17.0274 33.1507 15.7842 33.3767 14.6918 33.9418C14.089 34.2431 13.5616 34.6575 13.1472 35.1849C14.6918 33.4897 17.065 33.339 19.2123 33.0753C18.7979 33.226 18.3835 33.4144 18.0068 33.5651C17.5171 33.7534 17.0274 33.9418 16.5753 34.1678C15.7842 34.5068 15.0308 34.8835 14.5034 35.5993C15.0308 34.9589 15.8596 34.5822 16.613 34.2431C17.065 34.0548 17.5171 33.8664 18.0068 33.7157C18.4966 33.5274 19.0239 33.339 19.5137 33.0753C19.5137 33.0753 19.5137 33.0753 19.5137 33.0377C19.7774 33.0377 20.0034 32.9623 20.2671 32.9246C20.6438 32.8493 20.9829 32.774 21.3596 32.6986C21.7363 32.5856 22.113 32.4349 22.452 32.2466C22.452 32.2466 22.452 32.2089 22.452 32.1712C22.6781 32.4726 22.8664 32.7363 23.1301 33C23.2055 33.0753 23.2808 33.113 23.3185 33.1883C23.2055 33.226 23.0924 33.2637 23.0171 33.339C22.9418 33.339 22.8287 33.339 22.8287 33.452C22.3013 33.7534 21.8493 34.1301 21.3596 34.4692C20.4931 35.0719 19.5513 35.524 18.5719 35.9383H18.6472ZM28.2157 41.8527C28.2534 42.6815 28.2534 43.5103 28.2157 44.3767C27.9897 44.4144 27.8013 44.3767 27.613 44.339C27.8767 43.5479 27.839 42.6815 27.7637 41.8527C27.6883 41.2123 27.613 40.5342 27.5376 39.8938C27.3493 38.5377 27.1986 37.1815 27.0102 35.8253C27.0856 35.75 27.0856 35.637 27.0102 35.5993C26.9349 34.9212 26.8219 34.2431 26.7465 33.5651C26.7465 33.5274 26.7465 33.4144 26.6335 33.452C26.5582 33.452 26.5582 33.6404 26.5959 33.6781C26.6712 34.2808 26.7465 34.9212 26.8219 35.524C26.5582 35.4109 26.3698 35.1096 26.1438 34.9589C25.8048 34.7329 25.3904 34.6952 25.0137 34.6575C24.5993 34.6198 24.2602 34.5445 23.9212 34.3185C23.6575 34.1301 23.4692 33.9041 23.3185 33.6404C23.4692 33.5651 23.6198 33.4897 23.7705 33.452C24.0719 33.6404 24.3733 33.7911 24.7123 33.8664C25.2774 34.0171 26.0308 34.0171 26.5205 33.6781C26.5582 33.6781 26.5959 33.452 26.5205 33.452C26.2568 33.452 25.9931 33.5274 25.7294 33.5651C25.4657 33.5651 25.1644 33.5651 24.9007 33.4897C24.5993 33.452 24.3356 33.339 24.0719 33.1883C24.0719 33.113 23.9965 33.0753 23.8835 33.0753C23.8835 33.0753 23.5445 32.8493 23.3938 32.6986C22.9418 32.2466 22.6027 31.6815 22.226 31.1918C21.8493 30.7397 21.4349 30.3253 20.9452 29.9486C20.5308 29.6096 20.0411 29.2705 19.5513 29.0445C20.0034 28.7808 20.5685 28.7431 21.0582 28.8561C21.3972 28.8938 21.7363 28.9692 22.0376 29.0822C22.339 29.1575 22.6781 29.2329 22.9794 29.3835C23.9589 29.8356 24.4863 30.7774 25.1644 31.5685C25.5034 31.9829 25.9178 32.3972 26.4452 32.5856C26.4452 32.5856 26.4452 32.5856 26.4829 32.5856C26.5959 32.6609 26.6335 32.3219 26.5582 32.2466C26.1061 31.8322 25.8048 31.3424 25.6164 30.7774C25.3904 30.1746 25.202 29.5719 25.0137 28.9692C24.637 27.839 24.2602 26.6335 24.4109 25.4281C24.4109 25.1267 24.4863 24.8253 24.5616 24.5616C24.5993 24.4109 24.637 24.2979 24.7123 24.1472C24.75 24.0342 24.7876 23.7705 24.976 23.7705C25.089 23.7705 25.2397 23.8835 25.315 23.9589C25.4281 24.0342 25.5411 24.1096 25.6164 24.2226C25.8048 24.4109 25.9931 24.5993 26.1438 24.8253C26.4829 25.2774 26.7465 25.8048 26.9726 26.3322C27.1986 26.8972 27.4623 27.4246 27.726 27.9897C27.8767 28.2911 27.9897 28.5924 28.0274 28.9315C28.065 29.2705 28.065 29.6096 28.0274 29.9109C27.952 30.589 27.726 31.2294 27.5753 31.8698V31.9452C27.5753 31.9452 27.5753 32.1712 27.6507 32.0582C28.1781 30.8904 28.7431 29.7979 29.5719 28.8185C30.4007 27.8767 31.3801 27.0479 32.5479 26.5205C33.1507 26.2192 33.7911 25.9931 34.4315 25.8801C34.2808 27.1986 33.7534 28.4418 32.887 29.4589C32.6609 29.7603 32.3972 30.024 32.1712 30.3253C31.9452 30.6267 31.7192 30.9281 31.4931 31.2294C31.1164 31.7945 30.6267 32.1712 30.0239 32.4726C29.3835 32.8116 28.7055 33 27.9897 33.1883H28.065C28.065 33.1883 28.065 32.9623 28.065 33C27.8767 33.113 27.726 33.226 27.5376 33.3767C27.613 33.1883 27.726 33 27.8013 32.8116C27.8013 32.8116 27.8013 32.6233 27.7637 32.6986C27.613 32.8493 27.4623 33 27.3493 33.1883C27.4246 33 27.4623 32.8116 27.5376 32.6233C27.5376 32.6233 27.5376 32.4726 27.5376 32.5103C27.4246 32.6233 27.3493 32.774 27.2739 32.9246C27.2739 32.8116 27.2739 32.6986 27.2739 32.6233C27.2739 32.6233 27.2363 32.5479 27.2363 32.6233C27.2363 32.774 27.1609 32.9623 27.1233 33.113C27.1233 32.9246 27.0856 32.7363 27.0479 32.5479C27.0479 32.5103 27.0102 32.5103 27.0102 32.5479C27.0102 32.6986 26.9349 32.8493 26.9349 33.0377L26.7842 32.8493V32.887C26.8219 33.0377 26.8219 33.1883 26.7842 33.339C26.7089 33.226 26.5959 33.1507 26.5205 33.0753C26.5205 33.0753 26.5205 33.0753 26.5205 33.113C26.5959 33.226 26.7089 33.339 26.7842 33.452C26.7842 33.452 26.7842 33.1507 26.7842 33C26.7842 33.0377 26.8596 33.113 26.8972 33.1507C26.8972 33 26.9349 32.887 26.9726 32.7363C26.9726 32.9246 27.0102 33.113 27.0479 33.339C27.0479 33.3767 27.0856 33.452 27.1233 33.339C27.1609 33.226 27.1986 33.0753 27.2363 32.9623V33.1507C27.2363 33.1507 27.2363 33.2637 27.2739 33.1507C27.3116 33.0377 27.387 32.9246 27.4246 32.8116C27.3493 33.0377 27.2739 33.226 27.1609 33.452C27.1609 33.452 27.1609 33.5274 27.1609 33.5651C27.1609 33.5651 27.1609 33.6027 27.1986 33.5651C27.3116 33.3767 27.4246 33.226 27.5753 33.0377L27.3493 33.4897C27.3493 33.4897 27.3493 33.6404 27.387 33.6404C27.5753 33.5274 27.726 33.3767 27.9144 33.2637V33.339C27.9144 33.339 27.8013 33.3767 27.7637 33.4144C27.6507 33.5274 27.6507 33.7534 27.613 33.9041C27.5376 34.2431 27.5376 34.6198 27.5753 34.9589C27.5753 35.7123 27.726 36.4657 27.8013 37.2568C27.952 38.8014 28.1404 40.3835 28.2157 41.9657V41.8527ZM31.3801 34.0548C30.4007 34.4315 29.3459 34.2808 28.3287 34.1301C28.1404 34.1301 28.065 34.3938 28.2534 34.3938C29.2705 34.5445 30.363 34.7329 31.3424 34.3938C31.7192 34.2431 32.0959 34.0548 32.4349 33.8287C32.4349 33.8287 32.4349 33.8287 32.4726 33.8287C32.9246 33.9794 33.339 34.2055 33.7534 34.3938C34.1301 34.5822 34.5068 34.7705 34.8459 34.9966C35.1849 35.2226 35.4863 35.4863 35.637 35.863C35.7876 36.202 35.863 36.5788 36.0137 36.9178C35.637 36.7294 35.2979 36.5411 35.0342 36.2397C34.7329 35.9383 34.4692 35.6746 34.0924 35.4486C33.7157 35.2603 33.3013 35.1096 32.887 34.9966C32.4349 34.8459 31.9452 34.7705 31.4931 34.6575V34.7329C31.9828 34.8459 32.4349 34.9966 32.9246 35.1096C33.339 35.2226 33.7534 35.3733 34.1301 35.5993C34.3185 35.7123 34.5068 35.8253 34.6575 35.976C34.8082 36.1267 34.9589 36.3151 35.1096 36.4657C35.3733 36.7294 35.7123 36.9555 36.089 36.9931C36.2774 37.3698 36.5034 37.7089 36.7294 38.0103C35.637 38.0103 34.5068 37.9349 33.452 37.6335C32.8493 37.4452 32.2842 37.1815 31.7568 36.9178L30.0239 36.089L28.065 35.1472C28.065 35.1472 27.9144 35.1472 27.8767 35.1849C27.8767 34.9966 27.8767 34.8082 27.839 34.5822C27.839 34.3938 27.839 34.1678 27.839 33.9794C27.839 33.9041 27.839 33.7911 27.8767 33.7157C27.8767 33.7157 27.9144 33.4897 27.9897 33.452C27.9897 33.4897 28.065 33.5274 28.1027 33.5274C28.9692 33.3014 29.8733 33 30.6267 32.5103C30.6267 32.5103 30.6644 32.5103 30.702 32.5103C31.6438 32.5856 32.5479 32.6233 33.452 32.774C32.7363 33.0753 32.1335 33.6027 31.4178 33.9041L31.3801 34.0548ZM45.4315 30.0616C45.4315 30.0616 45.0548 29.7979 44.8287 29.7603C44.6027 29.6849 44.339 29.6472 44.113 29.5719C43.6609 29.4212 43.2089 29.1575 42.7192 29.0822C42.1541 29.0068 41.6267 29.1575 41.0616 29.2705C40.5342 29.3835 39.9692 29.4966 39.4418 29.6472C38.9144 29.7979 38.4246 29.9863 37.8972 30.137C37.3698 30.2877 36.8048 30.363 36.2774 30.4383C36.0137 30.4383 35.7123 30.476 35.4486 30.476C35.2602 30.476 35.2602 30.7774 35.4486 30.7774C35.976 30.7774 36.5034 30.702 37.0308 30.6267C37.5582 30.5514 38.0479 30.4007 38.5753 30.25C39.5924 29.9109 40.5719 29.6849 41.6267 29.4589C42.1541 29.3459 42.6438 29.3082 43.1712 29.4966C43.3972 29.5719 43.6233 29.6849 43.8493 29.7603C44.0753 29.8356 44.3013 29.9109 44.5274 29.9486C44.7534 29.9863 44.9794 30.0616 45.1678 30.1746C45.3561 30.2877 45.5068 30.476 45.6198 30.6267C45.9589 31.0411 46.2226 31.4555 46.5239 31.9075L46.75 32.2466L46.863 32.3972C46.863 32.3972 46.863 32.4349 46.9007 32.4726C46.9007 32.4726 46.7123 32.5856 46.5993 32.6609C46.4863 32.7363 46.4109 32.774 46.2979 32.8493C45.9212 33.1507 45.6575 33.4897 45.3561 33.8664H45.3185C45.3185 33.8664 44.9794 33.8288 44.8287 33.7534C44.6404 33.6781 44.452 33.6027 44.3013 33.4897C43.9623 33.3014 43.6609 33.0753 43.3219 32.8493C42.6815 32.3972 42.0787 31.9075 41.2876 31.7945C42.0787 32.0205 42.7568 32.5479 43.3972 33.0377C43.6986 33.2637 44 33.4897 44.339 33.6781C44.5274 33.7911 44.6781 33.8664 44.8664 33.9041C44.9794 33.9041 45.0924 33.9794 45.2055 33.9794C44.9794 34.2431 44.6781 34.4692 44.339 34.6198C43.9623 34.7705 43.5479 34.8835 43.1335 34.9212C42.1541 35.0342 41.1746 34.9212 40.1952 34.8459C39.6678 34.8082 39.1404 34.6952 38.6507 34.5068C38.1986 34.3185 37.7465 34.0548 37.2945 33.8287C36.3904 33.3767 35.4486 33 34.4692 32.774C33.452 32.5103 32.3596 32.3972 31.3048 32.3219C31.1164 32.3219 30.9281 32.3219 30.7774 32.3219C31.0034 32.1335 31.1918 31.9452 31.3801 31.7192C31.6061 31.4178 31.8322 31.0788 32.0582 30.7774C32.2842 30.476 32.5479 30.1746 32.8116 29.8733C33.2637 29.3082 33.6404 28.7055 33.9418 28.0651H33.9794C34.9589 27.387 36.0513 26.9726 37.2192 26.7842C37.5205 26.7466 37.7842 26.7089 38.0856 26.7089L37.4452 26.9349C36.9555 27.0856 36.5034 27.2363 36.0513 27.4623C35.2979 27.8014 34.6198 28.3288 34.0171 28.8561C33.8287 29.0068 33.6781 29.1952 33.4897 29.3459C33.339 29.4966 33.1883 29.6849 33 29.8356C33 29.8356 33.3013 29.6096 33.452 29.4589C33.6027 29.3082 33.7534 29.1575 33.9418 29.0445C34.2431 28.7808 34.5822 28.5171 34.8835 28.2534C35.2226 27.9897 35.5616 27.8014 35.9383 27.613C36.3527 27.387 36.8048 27.274 37.2568 27.1233L38.0479 26.8596C38.0479 26.8596 38.4246 26.7466 38.613 26.7089H39.1027C39.7431 26.7089 40.3835 26.6335 41.0239 26.5582C41.6644 26.4829 42.3048 26.3698 42.9452 26.2192C43.2465 26.1438 43.5479 26.0685 43.8493 26.0685C44.1507 26.0685 44.4897 26.0685 44.7911 26.1438C45.2055 26.2192 45.5822 26.3322 45.9589 26.5205C45.7328 26.8219 45.4692 27.0479 45.1678 27.274C44.9418 27.4246 44.6781 27.5377 44.4144 27.6507C43.6233 27.6507 42.7945 27.6883 42.0034 27.9144C41.6267 28.0274 41.2876 28.1781 40.9863 28.3664C40.6096 28.4794 40.2328 28.5924 39.8561 28.7055C39.1404 28.8938 38.4246 29.0445 37.7089 29.1198C36.8801 29.2329 36.0137 29.2329 35.1849 29.2329C36.6541 29.4589 38.1986 29.2705 39.5924 28.9315C40.3082 28.7431 40.9863 28.5171 41.702 28.3664C41.9657 28.3288 42.1918 28.2911 42.4555 28.2534C42.4555 28.2534 42.7568 28.4794 42.9452 28.5548C43.0959 28.6301 43.2842 28.7431 43.4349 28.8185C43.7739 29.0068 44.113 29.1952 44.4897 29.3459C44.8287 29.4966 45.2055 29.6472 45.5445 29.7226C45.6952 29.7603 45.8835 29.7979 46.0719 29.8356C46.2602 29.8733 46.4486 29.9109 46.637 29.9109C46.3733 30.1746 46.1849 30.476 45.9589 30.7774C45.7705 30.5137 45.5445 30.2123 45.2808 30.024L45.4315 30.0616ZM47.8801 28.9315C47.7294 29.1575 47.4281 29.3459 47.2397 29.4966C47.089 29.6096 46.976 29.7226 46.863 29.8733C46.863 29.8733 46.863 29.8733 46.863 29.8356C46.7123 29.7603 46.5239 29.7603 46.3356 29.7226C46.1472 29.7226 45.9589 29.6472 45.7328 29.5719C45.3561 29.4589 44.9794 29.3459 44.6404 29.1952C44.3013 29.0445 43.9623 28.8938 43.6233 28.7055C43.4349 28.6301 43.2842 28.5171 43.1335 28.4418C43.0205 28.3664 42.8322 28.2534 42.6815 28.2157C43.0959 28.2157 43.5102 28.2157 43.9246 28.2157C44.339 28.2534 44.7157 28.3288 45.0924 28.4418C45.4315 28.5548 45.7705 28.7055 46.1472 28.7808V28.7055C45.8835 28.4794 45.5068 28.3664 45.2055 28.2534C44.9041 28.1404 44.565 28.0651 44.226 28.0274C43.5479 27.9144 42.8698 27.952 42.1918 28.0274C41.9281 28.0651 41.6267 28.1404 41.363 28.2157C42.2294 27.7637 43.2465 27.6883 44.226 27.6507C44.226 27.6507 44.339 27.6507 44.3767 27.6507C44.9041 27.6507 45.3938 27.6507 45.8835 27.6507C46.1472 27.6507 46.4109 27.6507 46.637 27.613C46.863 27.613 47.1267 27.5753 47.3527 27.4623C47.4657 27.613 47.5411 27.726 47.6164 27.8767C47.7671 28.1404 48.0685 28.5171 47.8801 28.8185V28.9315Z" fill="#45504B" stroke="#45504B" stroke-width="0.25" stroke-linecap="round" stroke-linejoin="round"/>
<path d="M29.1575 25.3527C28.8938 26.4075 28.5171 27.4623 28.2534 28.5171C28.2534 28.5171 28.2534 28.5924 28.2534 28.5171C28.5548 27.6506 28.8185 26.7465 29.0445 25.8424C29.3082 24.9383 29.5342 23.9965 29.6849 23.0547C29.9486 21.2842 30.0993 19.476 30.9281 17.8561C31.3425 17.065 31.8699 16.3492 32.6233 15.8595V15.7842C31.3048 16.6506 30.6267 18.1198 30.25 19.6266C30.024 20.5684 29.8733 21.5102 29.7603 22.4897C29.6096 23.4314 29.4212 24.4109 29.1952 25.3527H29.1575Z" fill="#45504B" stroke="#45504B" stroke-width="0.25" stroke-linecap="round" stroke-linejoin="round"/>
<path d="M28.1027 19.4006C28.1027 20.041 28.1781 20.6438 28.2911 21.2465C28.4041 21.8869 28.4418 22.4897 28.4418 23.1301C28.4418 23.7705 28.3664 24.3732 28.2534 25.0136C28.1404 25.7294 27.9897 26.4451 27.8767 27.1609C27.8767 27.1609 27.8767 27.2362 27.9144 27.1609C28.2157 25.9554 28.4794 24.7123 28.5171 23.4691C28.5171 22.8664 28.5171 22.2636 28.4418 21.6609C28.3664 21.0205 28.2157 20.4177 28.1781 19.7773C28.1781 19.4383 28.1781 19.0616 28.1781 18.7225C28.1781 18.3458 28.2157 17.9691 28.2534 17.5924C28.1781 17.8938 28.1781 18.1951 28.1404 18.4965C28.1404 18.7979 28.1404 19.0993 28.1404 19.4006H28.1027Z" fill="#45504B" stroke="#45504B" stroke-width="0.25" stroke-linecap="round" stroke-linejoin="round"/>
<path d="M28.3664 16.9898C28.3664 16.9898 28.4794 16.613 28.5548 16.4624C28.6301 16.3117 28.7431 16.161 28.8185 16.0103C28.8185 16.2363 28.8561 16.5 28.8561 16.7637C28.8561 17.2911 28.8561 17.7809 28.8561 18.3083C28.9691 19.363 29.2328 20.4555 29.7602 21.3973C29.7602 21.3973 29.7602 21.3973 29.7602 21.3596C29.2705 20.3048 28.9691 19.1747 28.8938 18.0069C28.8938 17.4795 28.8938 16.9521 28.8938 16.4247C28.8938 16.1987 28.8561 15.935 28.7808 15.7089C28.7431 15.5206 28.6678 15.2569 28.5171 15.1062V15.1815C28.6301 15.4452 28.7431 15.7089 28.7808 15.9726C28.7808 15.9726 28.5924 16.3117 28.5171 16.4624C28.4417 16.6507 28.3664 16.8014 28.3287 16.9898C28.3287 16.9898 28.3287 17.0274 28.3287 16.9898H28.3664Z" fill="#45504B" stroke="#45504B" stroke-width="0.25" stroke-linecap="round" stroke-linejoin="round"/>
<path d="M30.6644 23.5441C30.7397 22.866 30.815 22.2256 31.0034 21.5852C31.0787 21.2085 31.1918 20.8694 31.3048 20.4927C31.4178 20.116 31.5685 19.777 31.7192 19.4003C31.4555 19.9277 31.2671 20.5304 31.0787 21.1331C30.8904 21.7359 30.7774 22.3763 30.702 22.979C30.6267 23.6194 30.589 24.2599 30.4383 24.9003C30.3253 25.503 30.137 26.0681 29.8733 26.6331C29.6096 27.2736 29.2329 27.8763 28.8561 28.4414C28.8561 28.4414 28.8561 28.5544 28.8561 28.5167C29.6096 27.6503 30.0993 26.5201 30.363 25.39C30.5137 24.7873 30.589 24.1468 30.6267 23.5441H30.6644Z" fill="#45504B" stroke="#45504B" stroke-width="0.25" stroke-linecap="round" stroke-linejoin="round"/>
<path d="M32.4726 18.1952C32.3219 18.5342 32.0958 18.8356 31.8698 19.137V19.2123C32.1335 18.9109 32.3595 18.6096 32.4726 18.2329V18.1952Z" fill="#45504B" stroke="#45504B" stroke-width="0.25" stroke-linecap="round" stroke-linejoin="round"/>
<path d="M31.8698 17.8562C31.8698 17.8562 31.7945 18.0445 31.7945 18.1199C31.7945 18.2329 31.7568 18.3082 31.7191 18.4212C31.6815 18.6096 31.6438 18.8356 31.6438 19.024C31.6438 19.024 31.6438 19.0993 31.6438 19.024C31.6438 18.8356 31.6815 18.6472 31.7191 18.4589C31.7191 18.3835 31.7568 18.2705 31.7945 18.1952C31.7945 18.0822 31.8698 18.0068 31.8698 17.8938V17.8185V17.8562Z" fill="#45504B" stroke="#45504B" stroke-width="0.25" stroke-linecap="round" stroke-linejoin="round"/>
<path d="M32.4349 22.0376C32.1712 22.791 31.9452 23.5821 31.6438 24.2979C31.4555 24.7123 31.2671 25.089 31.0034 25.4657C30.7774 25.8424 30.5137 26.2191 30.25 26.5958V26.6712C30.5137 26.4075 30.7397 26.1061 30.9658 25.8047C31.1918 25.5034 31.3801 25.1643 31.5308 24.8253C31.9075 24.1095 32.1336 23.3561 32.3973 22.6027C32.5103 22.226 32.661 21.8116 32.8493 21.4725C33 21.1335 33.226 20.8321 33.4144 20.4931C33.7911 19.8904 34.2432 19.3253 34.5445 18.6849C34.6199 18.5342 34.6952 18.3458 34.7329 18.1575C34.7706 18.0821 34.8459 18.0445 34.8836 17.9691C34.9589 17.8938 35.0343 17.8184 35.0719 17.7431C35.2226 17.5547 35.411 17.4041 35.5616 17.2157C35.9007 16.8767 36.2774 16.613 36.6164 16.2739V16.1609C36.5034 16.1986 36.4281 16.2739 36.3151 16.3493C36.2021 16.4246 36.1267 16.4999 36.0514 16.5753C35.863 16.726 35.7123 16.8767 35.524 17.065C35.3733 17.2157 35.2226 17.4041 35.0719 17.5547C34.9966 17.6301 34.9212 17.7431 34.8459 17.8184C34.8459 17.8561 34.8082 17.8938 34.7705 17.9315C34.8082 17.7808 34.8459 17.5924 34.8836 17.4417C34.8836 17.2157 34.9212 16.9897 34.9589 16.7636C34.9589 16.5376 35.0342 16.2739 35.1096 16.0479C35.1096 16.0479 35.1096 15.9725 35.1096 16.0479C34.9589 16.3869 34.9212 16.7636 34.8836 17.1404C34.8459 17.4794 34.8082 17.8561 34.6952 18.1575V18.3082C34.3938 18.9486 33.9418 19.5513 33.5274 20.1164C33.113 20.7191 32.7363 21.3595 32.4726 22.0753L32.4349 22.0376Z" fill="#45504B" stroke="#45504B" stroke-width="0.25" stroke-linecap="round" stroke-linejoin="round"/>
<path d="M32.7739 20.9455C32.9246 20.5311 32.9623 20.079 33.0376 19.627C33.113 19.1749 33.1883 18.7229 33.226 18.2708C33.226 17.8187 33.1883 17.442 33.0753 17.0276C33.0376 16.8016 33 16.6133 33 16.3872C33 16.1612 33.113 16.0105 33.226 15.8222C33.226 15.8222 33.226 15.7092 33.226 15.7468C32.9623 15.8975 32.9246 16.3496 32.9246 16.6133C32.9246 17.0653 33.1506 17.5174 33.1883 17.9694C33.1883 18.4968 33.0753 18.9865 33 19.5139C32.9246 20.0037 32.8116 20.4934 32.8116 20.9831L32.7739 20.9455Z" fill="#45504B" stroke="#45504B" stroke-width="0.25" stroke-linecap="round" stroke-linejoin="round"/>
<path d="M33.339 17.6682C33.5273 17.4045 33.678 17.1408 33.8664 16.8771C34.0547 16.6134 34.2431 16.3497 34.4315 16.086V16.0106C34.2054 16.2366 34.0171 16.5003 33.8664 16.764C33.678 17.0277 33.5273 17.3291 33.339 17.5928C33.339 17.5928 33.339 17.6682 33.339 17.6305V17.6682Z" fill="#45504B" stroke="#45504B" stroke-width="0.25" stroke-linecap="round" stroke-linejoin="round"/>
<path d="M31.6438 16.4242C31.7945 16.0475 31.8322 15.5955 31.8698 15.1811C31.8698 14.9174 31.9452 14.6914 32.0582 14.4653C32.1712 14.277 32.2842 14.0886 32.4349 13.9003C32.4349 13.9003 32.1335 14.2016 32.0205 14.3523C31.9075 14.5407 31.8698 14.729 31.8322 14.9174C31.8322 15.1434 31.7945 15.4071 31.7568 15.6331C31.7192 15.8592 31.6438 16.1229 31.6061 16.3489C31.6061 16.3489 31.6061 16.4242 31.6061 16.3866L31.6438 16.4242Z" fill="#45504B" stroke="#45504B" stroke-width="0.25" stroke-linecap="round" stroke-linejoin="round"/>
<path d="M31.6815 15.1811C31.6815 15.1811 31.7191 15.1811 31.6815 15.1434C31.6061 14.8421 31.5308 14.5407 31.4554 14.2393C31.4178 14.0886 31.3801 13.9379 31.3801 13.7873C31.3801 13.6366 31.3801 13.4859 31.3801 13.3352C31.3801 13.3352 31.3801 13.2599 31.3801 13.2975C31.3047 13.4105 31.3047 13.5612 31.3047 13.7119C31.3047 13.8626 31.3047 14.051 31.3801 14.2016C31.4554 14.5407 31.5684 14.8797 31.6815 15.2188V15.1811Z" fill="#45504B" stroke="#45504B" stroke-width="0.25" stroke-linecap="round" stroke-linejoin="round"/>
<path d="M30.363 16.4999C30.363 16.839 30.363 17.178 30.476 17.4794C30.476 17.5171 30.476 17.4794 30.476 17.4794C30.363 17.1404 30.363 16.8013 30.363 16.4623C30.363 16.1232 30.363 15.7842 30.4006 15.4451C30.476 14.7671 30.6267 14.1267 30.815 13.4862C30.815 13.4862 30.815 13.4109 30.815 13.4862C30.5513 14.1267 30.4383 14.8424 30.4006 15.5205C30.4006 15.8595 30.363 16.1986 30.363 16.5753V16.4999Z" fill="#45504B" stroke="#45504B" stroke-width="0.25" stroke-linecap="round" stroke-linejoin="round"/>
<path d="M30.4006 15.1434C30.4006 14.8797 30.4006 14.616 30.3253 14.3524C30.3253 14.2017 30.25 14.0887 30.1746 13.9756C30.137 13.8626 30.0616 13.7119 29.9863 13.6366V13.6743C30.0239 13.7873 30.0993 13.9003 30.137 14.0133C30.1746 14.1263 30.25 14.2393 30.2876 14.3524C30.363 14.616 30.4006 14.8797 30.4006 15.1058V15.1434Z" fill="#45504B" stroke="#45504B" stroke-width="0.25" stroke-linecap="round" stroke-linejoin="round"/>
<path d="M27.9143 20.0034C27.839 19.476 27.613 19.024 27.3869 18.5719C27.2739 18.3082 27.1609 18.0445 27.0856 17.7808C27.0102 17.4418 27.0102 17.1028 27.0479 16.7637C27.0479 16.7637 27.0479 16.6884 27.0479 16.7637C26.9349 17.3288 27.0479 17.8938 27.2363 18.4212C27.4623 18.9486 27.839 19.4384 27.9143 20.0411V20.0034Z" fill="#45504B" stroke="#45504B" stroke-width="0.25" stroke-linecap="round" stroke-linejoin="round"/>
<path d="M27.613 17.3662C27.726 17.5922 27.8013 17.8559 27.8013 18.1196C27.8013 18.1196 27.8013 18.1949 27.8013 18.1196C27.8013 17.9312 27.8013 17.7429 27.7637 17.5922C27.726 17.4038 27.613 17.2155 27.5376 17.0271C27.4246 16.8011 27.4623 16.5374 27.4623 16.3114C27.4623 16.0477 27.5376 15.8216 27.613 15.5956C27.613 15.5956 27.613 15.4826 27.613 15.5203C27.5 15.7086 27.4623 15.897 27.4246 16.123C27.4246 16.349 27.4246 16.5751 27.4246 16.8011C27.4246 17.0271 27.5376 17.2155 27.613 17.4038V17.3662Z" fill="#45504B" stroke="#45504B" stroke-width="0.25" stroke-linecap="round" stroke-linejoin="round"/>
<path d="M28.1027 15.7847C28.1027 16.0107 28.1027 16.2367 28.0274 16.4628C28.0274 16.4628 28.0274 16.5381 28.0274 16.4628C28.0651 16.2367 28.1027 16.0107 28.1027 15.747C28.1027 15.521 28.1027 15.2573 28.0274 15.0313C28.0274 14.9936 28.0274 15.0313 28.0274 15.0313C28.0274 15.2573 28.1027 15.4833 28.1027 15.7094V15.7847Z" fill="#45504B" stroke="#45504B" stroke-width="0.25" stroke-linecap="round" stroke-linejoin="round"/>
<path d="M27.4623 26.7465H27.5C27.5 26.1814 27.4247 25.6164 27.387 25.0513C27.3116 24.4862 27.2363 23.8835 27.161 23.3184C27.0479 22.7534 26.9349 22.1883 26.8973 21.5855C26.8973 21.0958 26.9349 20.6061 26.9349 20.0787C26.9349 19.8527 26.9349 19.589 26.8596 19.3629C26.8219 19.1369 26.7466 18.8732 26.5959 18.7225C26.7089 18.9862 26.7842 19.2123 26.8596 19.476C26.8973 19.702 26.8973 19.9657 26.8973 20.1917C26.8973 20.6814 26.8596 21.1712 26.8596 21.6232C26.8596 22.1506 26.9726 22.678 27.0479 23.2431C27.1233 23.8082 27.1986 24.3355 27.274 24.9006C27.3493 25.5034 27.387 26.1438 27.4623 26.7465Z" fill="#45504B" stroke="#45504B" stroke-width="0.25" stroke-linecap="round" stroke-linejoin="round"/>
<path d="M27.5753 21.2089C27.726 21.6232 27.6883 22.0376 27.5753 22.452C27.5 22.8287 27.387 23.1678 27.387 23.5445C27.387 23.0924 27.5753 22.6404 27.6507 22.226C27.726 21.8869 27.726 21.5102 27.5753 21.2089Z" fill="#45504B" stroke="#45504B" stroke-width="0.25" stroke-linecap="round" stroke-linejoin="round"/>
<path d="M32.0582 20.1913C31.9829 20.7564 31.8699 21.2838 31.7569 21.8488C31.6438 22.3385 31.5308 22.8659 31.5308 23.3933C31.5308 22.8283 31.6815 22.3009 31.7945 21.7358C31.9075 21.2461 32.0582 20.7187 32.0582 20.1913Z" fill="#45504B" stroke="#45504B" stroke-width="0.25" stroke-linecap="round" stroke-linejoin="round"/>
<path d="M32.9623 23.7328C32.5856 24.4109 32.1712 25.089 31.5685 25.5787V25.6541C32.6233 24.7876 33.1507 23.5445 33.7157 22.339C34.0171 21.6986 34.3185 21.0582 34.6575 20.4554C35.0342 19.8527 35.4863 19.363 36.0514 18.9486C36.7294 18.4965 37.5959 18.1198 38.0479 17.4041V17.3287C37.5582 17.9315 36.9178 18.3082 36.2774 18.6849C35.976 18.8733 35.6746 19.0993 35.4486 19.363C35.2226 19.589 35.0342 19.8527 34.8459 20.1164C34.4315 20.6438 34.1301 21.2465 33.8664 21.8493C33.5651 22.4897 33.3014 23.1301 32.9623 23.7705V23.7328Z" fill="#45504B" stroke="#45504B" stroke-width="0.25" stroke-linecap="round" stroke-linejoin="round"/>
<path d="M36.3527 18.9109C36.1267 19.0239 36.0514 19.3253 36.0137 19.589C36.0137 19.7773 36.0137 19.9657 35.9007 20.154C35.8253 20.3424 35.6746 20.4554 35.5993 20.6061C35.2226 21.0958 35.0342 21.7362 35.0342 22.3766C35.0342 22.4143 35.0342 22.4143 35.0342 22.3766C35.0342 21.7362 35.2603 21.0958 35.6747 20.6061C35.863 20.3801 35.976 20.1917 36.0137 19.8903C36.0514 19.5513 36.089 19.2876 36.3527 19.0239V18.9486V18.9109Z" fill="#45504B" stroke="#45504B" stroke-width="0.25" stroke-linecap="round" stroke-linejoin="round"/>
<path d="M38.5753 20.5685C37.9726 21.2466 37.4452 22 36.6164 22.4144C36.1644 22.6404 35.6746 22.7911 35.2226 23.0171C34.7705 23.2431 34.3561 23.5068 33.9794 23.8459V23.9212C34.3561 23.6199 34.8082 23.3562 35.2226 23.1678C35.6746 22.9418 36.1644 22.7911 36.6164 22.5651C37.4452 22.1507 38.0479 21.3972 38.5376 20.6438V20.5685H38.5753Z" fill="#45504B" stroke="#45504B" stroke-width="0.25" stroke-linecap="round" stroke-linejoin="round"/>
<path d="M26.7842 31.7569C26.6335 30.6267 26.4075 29.4966 26.1438 28.3665C26.0308 27.8014 25.8801 27.2363 25.7294 26.6713C25.6541 26.4076 25.5787 26.1439 25.5034 25.8425C25.4657 25.6918 25.428 25.5411 25.3904 25.3904C25.3904 25.2774 25.315 25.1644 25.2774 25.0514C25.2774 25.0137 25.2397 25.0891 25.2397 25.1267C25.2397 25.3904 25.3527 25.6918 25.428 25.9555C25.5034 26.2192 25.5787 26.4829 25.6541 26.7843C25.8048 27.3117 25.9178 27.8767 26.0685 28.4041C26.3322 29.5343 26.5582 30.6644 26.7465 31.7946C26.7465 31.8699 26.7842 31.7946 26.7842 31.7946V31.7569Z" fill="#45504B" stroke="#45504B" stroke-width="0.25" stroke-linecap="round" stroke-linejoin="round"/>
<path d="M26.1438 31.0411C26.0685 30.7774 25.9554 30.5137 25.8801 30.25C25.6917 29.7226 25.5411 29.2328 25.3904 28.7054C25.2397 28.178 25.1267 27.6506 25.0513 27.1232C24.976 26.5959 24.9383 26.0308 24.9007 25.4657C24.9007 25.4657 24.9007 25.428 24.9007 25.4657C24.8253 25.9931 24.9007 26.5582 24.976 27.0856C25.0513 27.6506 25.1644 28.178 25.315 28.7431C25.4657 29.2705 25.6541 29.8356 25.8424 30.363C25.9554 30.6267 26.0308 30.8904 26.1438 31.1541C26.2568 31.4178 26.3322 31.6815 26.4452 31.9075C26.4452 31.9452 26.4828 31.8698 26.4452 31.8322C26.3698 31.5685 26.2568 31.3048 26.1815 31.0411H26.1438Z" fill="#45504B" stroke="#45504B" stroke-width="0.25" stroke-linecap="round" stroke-linejoin="round"/>
<path d="M26.6712 27.199C27.0479 28.1785 27.1232 29.2333 27.0856 30.2504C27.0856 30.8154 27.0102 31.4182 26.9349 31.9833C26.9349 32.0209 26.9726 32.0963 26.9726 31.9833C27.1232 30.9285 27.2363 29.8737 27.1232 28.8189C27.0856 28.2915 26.9726 27.8017 26.8219 27.312C26.6712 26.8223 26.4452 26.3326 26.2191 25.8428C25.9554 25.2778 25.7294 24.675 25.428 24.1476C25.3904 24.0723 25.3527 24.223 25.3904 24.2607C25.7671 25.2401 26.2945 26.1442 26.6712 27.1237V27.199Z" fill="#45504B" stroke="#45504B" stroke-width="0.25" stroke-linecap="round" stroke-linejoin="round"/>
<path d="M27.6506 32.5483C28.1404 31.5311 28.8184 30.5893 29.5719 29.7606C30.4006 28.8565 31.3424 28.103 32.3219 27.3873C32.5856 27.1989 32.8869 26.9729 33.1506 26.7846C33.4143 26.5962 33.7534 26.4078 33.9794 26.1441V26.0311C33.8287 26.0688 33.7157 26.1818 33.6027 26.2572C33.452 26.3702 33.339 26.4455 33.1883 26.5585C32.9246 26.7469 32.6986 26.9352 32.4349 27.0859C31.9452 27.4626 31.4554 27.8393 30.9657 28.2537C30.0993 29.0072 29.2705 29.8359 28.5924 30.8154C28.2157 31.3428 27.9143 31.9078 27.6506 32.5106C27.6506 32.5106 27.6506 32.5859 27.6506 32.5106V32.5483Z" fill="#45504B" stroke="#45504B" stroke-width="0.25" stroke-linecap="round" stroke-linejoin="round"/>
<path d="M29.9109 31.2671C30.476 30.6644 31.0034 30.024 31.3801 29.3082C31.6061 28.8938 31.8321 28.4794 31.9452 28.0651C31.9452 28.0651 31.9452 27.9144 31.9075 27.9897C31.7191 28.3288 31.5685 28.7055 31.3801 29.0445C31.1917 29.3836 30.9657 29.7603 30.7397 30.0616C30.25 30.7397 29.7226 31.3048 29.0822 31.8322C28.7431 32.1336 28.3664 32.3973 27.9897 32.661V32.7363C28.7054 32.3596 29.3459 31.8322 29.9109 31.2671Z" fill="#45504B" stroke="#45504B" stroke-width="0.25" stroke-linecap="round" stroke-linejoin="round"/>
<path d="M33.6781 26.7845C33.6781 26.7845 33.4144 27.0859 33.3014 27.2366C33.1507 27.4249 33.0377 27.6133 32.9247 27.8016C32.661 28.1783 32.4349 28.555 32.1712 28.9318C31.6815 29.6852 31.1541 30.4009 30.5137 31.079C30.137 31.4934 29.7603 31.8701 29.3459 32.2092V32.2845C30.8527 31.2297 31.8322 29.6475 32.8493 28.1407C33.1507 27.7263 33.4897 27.2742 33.7157 26.8222C33.7157 26.8222 33.7157 26.7092 33.7157 26.7468L33.6781 26.7845Z" fill="#45504B" stroke="#45504B" stroke-width="0.25" stroke-linecap="round" stroke-linejoin="round"/>
<path d="M26.1815 32.9249C25.7671 32.7742 25.3527 32.5482 24.976 32.2845C24.5993 32.0208 24.3356 31.6818 24.0342 31.3427C23.7705 31.0037 23.5068 30.6647 23.2055 30.3633C22.9041 30.0619 22.5651 29.7982 22.1883 29.5722C21.774 29.3462 21.3596 29.1578 20.9075 29.0448C20.8322 29.0448 20.8322 29.2332 20.9075 29.2708C21.7363 29.5345 22.4897 29.9112 23.0925 30.514C23.6952 31.1167 24.1096 31.8701 24.7877 32.3975C25.202 32.6989 25.6918 32.8873 26.1438 33.0379C26.1438 33.0379 26.1815 32.9626 26.1438 32.9626L26.1815 32.9249Z" fill="#45504B" stroke="#45504B" stroke-width="0.25" stroke-linecap="round" stroke-linejoin="round"/>
<path d="M23.1301 31.5305C22.8287 31.1914 22.5274 30.8524 22.226 30.551C21.9246 30.2497 21.6609 29.873 21.3219 29.6093C21.3219 29.6093 21.3219 29.6846 21.3219 29.7223C21.5856 30.099 21.9246 30.4003 22.2637 30.7771C22.5651 31.1161 22.8664 31.4551 23.1678 31.7565C23.4315 32.0202 23.7329 32.3216 24.0719 32.5476C24.4109 32.8113 24.7877 32.9997 25.1644 33.1504V33.1127C24.4109 32.7736 23.7329 32.2086 23.1678 31.6058L23.1301 31.5305Z" fill="#45504B" stroke="#45504B" stroke-width="0.25" stroke-linecap="round" stroke-linejoin="round"/>
<path d="M28.1404 33.603V33.6783C29.0822 33.9797 30.1746 33.9044 31.0411 33.377V33.3016C30.589 33.4523 30.0993 33.603 29.6096 33.6783C29.1198 33.716 28.6301 33.6783 28.1781 33.603H28.1404Z" fill="#45504B" stroke="#45504B" stroke-width="0.25" stroke-linecap="round" stroke-linejoin="round"/>
<path d="M22.9794 22.9041C22.8664 22.6028 22.8287 22.2637 22.7534 21.9247C22.7534 21.5103 22.9041 21.0959 23.0548 20.6815C23.1678 20.3048 23.2431 19.9281 23.2431 19.5137C23.2431 18.798 23.1301 17.9315 22.7534 17.3288C22.7534 17.3288 22.7534 17.3665 22.7534 17.4041C22.9041 17.7808 23.0548 18.1576 23.1301 18.5719C23.2055 18.9487 23.2431 19.363 23.2055 19.7774C23.1678 20.1918 23.0548 20.5685 22.9418 20.9452C22.8664 21.1713 22.7911 21.435 22.7911 21.6987C22.7157 21.2843 22.6404 20.8322 22.5274 20.4178C22.339 19.7021 22.0753 19.024 21.6986 18.3459C21.3219 17.7055 20.9075 17.1028 20.5308 16.4624C20.1164 15.7843 19.7774 15.0685 19.589 14.2774C19.589 14.2021 19.5137 14.2774 19.5137 14.3528C19.7397 15.7843 20.6438 17.0274 21.3972 18.2329C21.7739 18.8733 22.1507 19.5514 22.339 20.3048C22.565 21.1336 22.6404 22.0377 22.9041 22.8665C23.1301 23.7329 23.5068 24.637 24.0719 25.3151C24.0719 25.3528 24.1096 25.2398 24.0719 25.2398C23.6198 24.524 23.2431 23.7706 23.0171 22.9418L22.9794 22.9041Z" fill="#45504B" stroke="#45504B" stroke-width="0.25" stroke-linecap="round" stroke-linejoin="round"/>
<path d="M21.887 16.7636C21.9623 17.1027 21.887 17.4417 21.887 17.7808C21.887 18.3082 21.887 18.8355 22.1883 19.2876V19.2499C21.8493 18.6849 21.9623 18.0068 21.9623 17.404C21.9623 17.1027 21.9623 16.8013 21.887 16.5376C21.8116 16.2739 21.6609 16.0102 21.5103 15.7842C21.6609 16.1232 21.8116 16.4623 21.8493 16.8013L21.887 16.7636Z" fill="#45504B" stroke="#45504B" stroke-width="0.25" stroke-linecap="round" stroke-linejoin="round"/>
<path d="M21.2089 17.5174C21.2089 17.103 20.9829 16.6886 20.7945 16.3119C20.6815 16.1235 20.6061 15.8975 20.5308 15.7091C20.4555 15.4831 20.4178 15.2571 20.3801 15.0311C20.3801 14.9934 20.3424 14.9934 20.3424 15.0311C20.2671 15.4454 20.4931 15.8975 20.6815 16.2365C20.8698 16.6509 21.1335 17.0653 21.1712 17.5174H21.2089Z" fill="#45504B" stroke="#45504B" stroke-width="0.25" stroke-linecap="round" stroke-linejoin="round"/>
<path d="M23.9212 23.6952C23.9212 23.6952 23.9589 23.6575 23.9212 23.6198C23.5068 22.7911 23.7705 21.8493 23.6198 21.0205C23.7328 21.8869 23.4315 22.8664 23.9212 23.6952Z" fill="#45504B" stroke="#45504B" stroke-width="0.25" stroke-linecap="round" stroke-linejoin="round"/>
<path d="M17.5171 15.1435C17.3664 14.8422 17.2911 14.5031 17.2158 14.1641C17.2158 14.1264 17.2158 14.1641 17.2158 14.1641C17.2158 14.8045 17.5548 15.4826 17.9315 15.9723C18.3459 16.5374 18.8733 16.9518 19.3253 17.4791V17.4415C18.9486 16.9141 18.4589 16.462 18.0445 15.9346C17.8562 15.6709 17.6678 15.4072 17.5171 15.1059V15.1435Z" fill="#45504B" stroke="#45504B" stroke-width="0.25" stroke-linecap="round" stroke-linejoin="round"/>
<path d="M21.1335 19.7023C20.9452 18.9489 20.7568 18.1955 20.3801 17.5551C20.3801 17.5174 20.3424 17.5927 20.3801 17.6304C20.7191 18.3462 20.9452 19.1373 21.1335 19.8907C21.2842 20.6441 21.4349 21.3975 21.6232 22.1133C21.6232 22.151 21.6609 22.1133 21.6232 22.1133C21.4726 21.3222 21.3219 20.5311 21.1335 19.74V19.7023Z" fill="#45504B" stroke="#45504B" stroke-width="0.25" stroke-linecap="round" stroke-linejoin="round"/>
<path d="M21.7739 21.2842C21.8493 21.8869 22 22.452 22.226 22.9794C22 22.4143 21.8869 21.8492 21.7739 21.2842Z" fill="#45504B" stroke="#45504B" stroke-width="0.25" stroke-linecap="round" stroke-linejoin="round"/>
<path d="M19.5514 21.2469C19.5514 21.2469 19.476 21.36 19.5514 21.36C20.2671 22.1511 20.7945 23.0928 21.2842 24.0346C21.774 24.9011 22.226 25.8052 22.8664 26.5586C23.2055 26.973 23.6199 27.3497 24.1096 27.6134C24.1096 27.6134 24.1096 27.5757 24.1096 27.538C22.3767 26.3326 21.661 24.336 20.6062 22.6031C20.3048 22.1134 19.9658 21.6613 19.5514 21.2469Z" fill="#45504B" stroke="#45504B" stroke-width="0.25" stroke-linecap="round" stroke-linejoin="round"/>
<path d="M18.7226 19.589C18.7226 19.589 18.9109 19.8527 19.0239 20.0034C19.2123 20.2671 19.4006 20.5685 19.6267 20.7945C20.0787 21.2843 20.7191 21.5479 21.0958 22.113C21.0958 22.1507 21.1335 22.113 21.0958 22.0377C20.7568 21.4726 20.1541 21.1336 19.6643 20.6438C19.4006 20.3801 19.2123 20.0788 19.0239 19.8151C18.9109 19.6644 18.8356 19.5514 18.7226 19.4007C18.6095 19.2877 18.4965 19.137 18.3458 19.0616C18.3082 19.0616 18.3458 19.137 18.3458 19.1747C18.4589 19.2877 18.5719 19.4007 18.6849 19.5514L18.7226 19.589Z" fill="#45504B" stroke="#45504B" stroke-width="0.25" stroke-linecap="round" stroke-linejoin="round"/>
<path d="M16.0103 18.5342C16.3116 18.9863 16.4623 19.5137 16.6883 20.0034C17.0651 20.8698 17.6301 21.6233 18.1952 22.339C19.4383 23.8459 20.9829 25.089 22.1883 26.5959C22.5651 27.0479 22.9041 27.5377 23.2431 28.0274C23.3938 28.2911 23.5822 28.5548 23.7329 28.7808C23.8836 29.0445 24.0342 29.2705 24.1849 29.5342C24.0719 29.3082 23.9589 29.0445 23.8459 28.8185C23.7329 28.5925 23.5822 28.3664 23.4315 28.1404C23.1301 27.6883 22.8288 27.2363 22.5274 26.8219C21.9247 26.0308 21.2466 25.2774 20.5308 24.5616C19.1747 23.2055 17.7055 21.887 16.839 20.1541C16.5753 19.6267 16.4247 19.024 16.1233 18.4966C15.8219 17.9692 15.4452 17.5548 14.9931 17.1404C14.9555 17.1027 14.9178 17.2534 14.9931 17.2911C15.3322 17.7055 15.7089 18.0822 16.0103 18.5342Z" fill="#45504B" stroke="#45504B" stroke-width="0.25" stroke-linecap="round" stroke-linejoin="round"/>
<path d="M17.2534 19.514C17.6678 20.0791 18.1575 20.5312 18.6096 21.0586C19.0616 21.586 19.476 22.151 19.8527 22.7538C20.2671 23.3942 20.6438 24.0723 20.9452 24.7503C20.9452 24.7503 20.9452 24.7503 20.9452 24.7127C20.3801 23.4319 19.6644 22.2264 18.7979 21.1716C18.3459 20.6065 17.8562 20.1168 17.4041 19.5894C16.9521 19.0243 16.6884 18.3462 16.387 17.6682C16.1233 17.0277 15.7466 16.3873 15.1438 16.0106C15.1062 16.0106 15.0685 16.1613 15.1438 16.199C16.3116 16.9147 16.4623 18.4592 17.2158 19.514H17.2534Z" fill="#45504B" stroke="#45504B" stroke-width="0.25" stroke-linecap="round" stroke-linejoin="round"/>
<path d="M14.9931 19.5895C15.1815 19.7402 15.4075 19.8909 15.6335 20.0039C16.0856 20.2676 16.5376 20.4936 16.952 20.8327C16.952 20.8327 16.952 20.795 16.952 20.7573C16.5753 20.3806 16.1233 20.1169 15.7089 19.8532C15.4828 19.7402 15.2945 19.5895 15.0685 19.4388C14.9554 19.3635 14.8424 19.2881 14.7294 19.1751C14.6541 19.0998 14.5787 18.9868 14.4657 18.9491C14.428 18.9491 14.4657 19.0244 14.4657 19.0621C14.5787 19.2881 14.8048 19.4388 14.9931 19.5895Z" fill="#45504B" stroke="#45504B" stroke-width="0.25" stroke-linecap="round" stroke-linejoin="round"/>
<path d="M16.6506 21.6986C16.2739 21.4349 15.9349 21.1712 15.5582 20.8699C15.8972 21.1712 16.2362 21.4349 16.5753 21.7363C16.726 21.8493 16.9143 22 17.065 22.113C17.2534 22.226 17.4417 22.3767 17.6301 22.4897C17.6301 22.4897 17.6301 22.4521 17.6301 22.4144C17.4794 22.2637 17.291 22.1884 17.1404 22.0754C16.952 21.9623 16.8013 21.8117 16.613 21.6986H16.6506Z" fill="#45504B" stroke="#45504B" stroke-width="0.25" stroke-linecap="round" stroke-linejoin="round"/>
<path d="M16.5 23.6951C17.2157 24.1849 17.9691 24.6746 18.7226 25.1643C19.4383 25.6541 20.1541 26.1814 20.7945 26.7842C21.4726 27.3869 22.113 28.1027 22.9794 28.5171C22.9794 28.5171 22.9794 28.5171 22.9794 28.4794C22.3013 27.9897 21.6986 27.3869 21.0958 26.8219C20.4931 26.2191 19.815 25.7294 19.0993 25.2397C17.7054 24.2979 16.1986 23.5068 14.9178 22.3767C14.2397 21.7739 13.5993 21.0958 13.1472 20.3424C13.1472 20.3424 13.1472 20.3424 13.1472 20.3801C13.9383 21.7739 15.1815 22.8287 16.5 23.7328V23.6951Z" fill="#45504B" stroke="#45504B" stroke-width="0.25" stroke-linecap="round" stroke-linejoin="round"/>
<path d="M21.9246 27.9898C20.4554 27.6507 19.2876 26.7089 18.0068 25.9555C16.6506 25.1644 15.1815 24.637 13.7123 24.072C12.8835 23.7329 12.0548 23.3939 11.3013 22.9795C11.3013 22.9795 11.3013 23.0172 11.3013 23.0548C11.9794 23.4692 12.6952 23.8083 13.4486 24.1096C14.1643 24.411 14.9178 24.6747 15.6712 25.0137C16.3869 25.3151 17.1404 25.6541 17.8185 26.0685C18.4589 26.4452 19.0616 26.8596 19.6643 27.274C20.3801 27.6884 21.0959 28.0651 21.9246 28.2158C22 28.2158 22 28.0651 21.9246 28.0274V27.9898Z" fill="#45504B" stroke="#45504B" stroke-width="0.25" stroke-linecap="round" stroke-linejoin="round"/>
<path d="M12.1678 21.3972C12.3938 21.5103 12.6198 21.6609 12.8082 21.8116C13.2226 22.113 13.5616 22.5274 13.863 22.9418C14.1643 23.3185 14.5034 23.6952 14.8801 24.0342C15.2568 24.3356 15.6335 24.6746 16.0856 24.863C16.1232 24.863 16.0856 24.7877 16.0856 24.75C15.6712 24.4486 15.2191 24.1472 14.8424 23.8082C14.4657 23.4692 14.1267 23.0925 13.8253 22.7157C13.5239 22.339 13.1849 21.9623 12.8082 21.6609C12.6198 21.5103 12.3938 21.3596 12.1678 21.2466C11.9417 21.1335 11.7157 21.0205 11.4897 20.9452V21.0205C11.7157 21.1712 11.9417 21.2842 12.1678 21.4349V21.3972Z" fill="#45504B" stroke="#45504B" stroke-width="0.25" stroke-linecap="round" stroke-linejoin="round"/>
<path d="M12.2808 24.1093C12.2808 24.1093 12.2808 24.1469 12.2808 24.1846C13.1096 24.5236 13.976 24.8627 14.8801 25.0134V24.9757C14.0137 24.712 13.1473 24.4483 12.2808 24.1093Z" fill="#45504B" stroke="#45504B" stroke-width="0.25" stroke-linecap="round" stroke-linejoin="round"/>
<path d="M12.2808 29.5343C11.6027 29.4589 10.887 29.4966 10.2465 29.3083C9.68148 29.1576 9.11641 28.8939 8.70203 28.4795C9.11641 28.9692 9.64381 29.2329 10.2465 29.3836C10.9246 29.5343 11.6027 29.6096 12.3185 29.5343H12.2808Z" fill="#45504B" stroke="#45504B" stroke-width="0.25" stroke-linecap="round" stroke-linejoin="round"/>
<path d="M15.4828 30.7397C15.2568 30.6267 14.9931 30.5513 14.7671 30.5137C14.5034 30.5137 14.2774 30.5137 14.0137 30.5513C13.5239 30.6267 13.0342 30.815 12.5822 31.0411C12.0924 31.2671 11.6027 31.5308 11.0753 31.6815C10.8116 31.7568 10.5479 31.8322 10.2842 31.8322C10.0205 31.8322 9.75681 31.8322 9.45544 31.8322V31.9075C9.94517 32.0959 10.4726 31.9828 10.9623 31.8698C11.4897 31.7192 11.9417 31.4931 12.4315 31.2671C12.9212 31.0411 13.4109 30.815 13.9006 30.702C14.3904 30.589 14.9931 30.5513 15.4828 30.702V30.7397Z" fill="#45504B" stroke="#45504B" stroke-width="0.25" stroke-linecap="round" stroke-linejoin="round"/>
<path d="M9.90754 30.8904C9.60617 30.7397 9.26713 30.6267 8.96576 30.5137C9.3048 30.6644 9.60617 30.7774 9.90754 30.9281V30.8904Z" fill="#45504B" stroke="#45504B" stroke-width="0.25" stroke-linecap="round" stroke-linejoin="round"/>
<path d="M10.0959 33.3393C10.0959 33.3393 10.0959 33.377 10.0959 33.3393C10.3596 32.9626 10.6986 32.6612 11.0753 32.3975C11.4521 32.1338 11.8288 31.9455 12.2808 31.7948C11.4144 31.9832 10.5856 32.5482 10.0959 33.3017V33.3393Z" fill="#45504B" stroke="#45504B" stroke-width="0.25" stroke-linecap="round" stroke-linejoin="round"/>
<path d="M13.5239 31.7945C15.6335 31.4178 17.7808 31.7945 19.928 31.8699C20.5308 31.8699 21.1712 31.9076 21.7739 31.7945C21.8116 31.7945 21.8116 31.6815 21.7739 31.6815C21.2465 31.6815 20.6815 31.6815 20.1541 31.6815C19.6267 31.6815 19.0993 31.6439 18.5719 31.6062C17.5171 31.5308 16.4246 31.4555 15.3698 31.4932C14.7671 31.4932 14.1643 31.6062 13.5616 31.7945H13.5239Z" fill="#45504B" stroke="#45504B" stroke-width="0.25" stroke-linecap="round" stroke-linejoin="round"/>
<path d="M17.8185 31.8325C16.4623 31.9832 15.1438 32.5106 13.976 33.1886C14.5788 32.8873 15.1815 32.6236 15.8219 32.3975C16.4623 32.1715 17.1404 32.0208 17.8185 31.8701V31.7948V31.8325Z" fill="#45504B" stroke="#45504B" stroke-width="0.25" stroke-linecap="round" stroke-linejoin="round"/>
<path d="M22.2637 32.586C21.9246 32.925 21.5856 33.2264 21.1712 33.4901C20.7568 33.7538 20.3424 33.9421 19.9281 34.1682C18.9863 34.6955 18.0822 35.2983 17.2911 36.014C18.1575 35.3736 19.0616 34.7332 20.0411 34.2435L20.2671 34.1305C20.0034 34.3565 19.815 34.6202 19.6267 34.9216C19.6267 34.9216 19.6267 34.9969 19.6267 34.9216C19.8527 34.5825 20.1164 34.3188 20.3801 34.0175C21.0959 33.6784 21.8493 33.264 22.3014 32.586V32.5106L22.2637 32.586Z" fill="#45504B" stroke="#45504B" stroke-width="0.25" stroke-linecap="round" stroke-linejoin="round"/>
<path d="M17.8185 35.3729C17.6301 35.3729 17.4041 35.4106 17.2158 35.4483C17.0274 35.4483 16.8014 35.5236 16.613 35.5613C16.274 35.6366 15.8973 35.712 15.5959 35.9003C15.9349 35.7496 16.3116 35.712 16.6884 35.6366C16.8767 35.6366 17.0651 35.5613 17.2911 35.5613C17.4794 35.5613 17.6678 35.4859 17.8562 35.4483V35.3729H17.8185Z" fill="#45504B" stroke="#45504B" stroke-width="0.25" stroke-linecap="round" stroke-linejoin="round"/>
<path d="M29.7603 34.8838C30.5513 35.0345 31.2294 35.4866 31.8698 35.9386C32.2089 36.1646 32.5103 36.3907 32.8493 36.5413C33 36.6167 33.1883 36.7297 33.3767 36.7674C33.5274 36.8427 33.7534 36.9181 33.9041 36.9181C33.9041 36.9181 33.9041 36.8427 33.9041 36.805C33.7157 36.7297 33.5274 36.6544 33.339 36.579C33.1507 36.5037 32.9623 36.4283 32.8116 36.3153C32.4726 36.127 32.1335 35.9009 31.8322 35.7126C31.1918 35.2982 30.5137 34.8838 29.7603 34.8085V34.8838Z" fill="#45504B" stroke="#45504B" stroke-width="0.25" stroke-linecap="round" stroke-linejoin="round"/>
<path d="M25.9555 34.2059C25.7294 34.3189 25.4657 34.3943 25.202 34.3943C24.9383 34.3943 24.6746 34.3189 24.4486 34.2059C24.863 34.545 25.5034 34.5826 25.9555 34.2813V34.2059Z" fill="#45504B" stroke="#45504B" stroke-width="0.25" stroke-linecap="round" stroke-linejoin="round"/>
<path d="M26.3322 34.3934V34.5064L26.2192 34.6195V34.6571L26.2945 34.5441C26.2945 34.5441 26.3322 34.4688 26.3699 34.4311L26.3322 34.3934Z" fill="#45504B" stroke="#45504B" stroke-width="0.25" stroke-linecap="round" stroke-linejoin="round"/>
<path d="M30.5513 35.5992C30.815 35.8253 31.0787 36.0513 31.3424 36.2397C31.3424 36.2397 31.3424 36.2397 31.3424 36.202C31.0787 35.976 30.815 35.7876 30.5513 35.5992Z" fill="#45504B" stroke="#45504B" stroke-width="0.25" stroke-linecap="round" stroke-linejoin="round"/>
<path d="M34.9212 32.0205C34.5068 32.0205 34.0924 32.0582 33.7157 32.1335C33.3013 32.1712 32.887 32.2089 32.5103 32.3219V32.3596C32.887 32.3596 33.2637 32.2842 33.6027 32.2466C33.9418 32.2466 34.3185 32.1712 34.6575 32.1712C35.3733 32.1712 36.089 32.1712 36.8048 32.2842C38.0856 32.5103 39.2534 33.1507 40.4966 33.5651C40.8356 33.6781 41.137 33.7911 41.476 33.8288C41.8151 33.9041 42.1918 33.9418 42.5308 33.9041V33.8288C42.1918 33.7911 41.8904 33.7534 41.5514 33.6781C41.25 33.6027 40.9109 33.5274 40.6096 33.4144C40.0068 33.226 39.4041 32.9623 38.8014 32.7363C38.1986 32.5103 37.6335 32.2842 36.9931 32.1335C36.2774 31.9829 35.5616 31.9452 34.8459 31.9452L34.9212 32.0205Z" fill="#45504B" stroke="#45504B" stroke-width="0.25" stroke-linecap="round" stroke-linejoin="round"/>
<path d="M37.8596 31.3801C38.8767 31.4932 39.9315 31.6062 40.9486 31.7192C41.476 31.7569 41.9657 31.8322 42.4931 31.8699C42.9828 31.9075 43.4726 31.9829 44 31.9829C44.2637 31.9829 44.5274 31.9829 44.8287 31.9075C45.0924 31.9075 45.3938 31.8322 45.6198 31.7192V31.6062C45.3938 31.6062 45.1678 31.6815 44.9417 31.7192C44.7157 31.7569 44.452 31.7945 44.226 31.7945C43.7363 31.7945 43.2465 31.7945 42.7568 31.7192C41.7397 31.6062 40.7226 31.5308 39.7054 31.4178C39.1404 31.3802 38.5376 31.3425 37.9726 31.3048L37.8596 31.3801Z" fill="#45504B" stroke="#45504B" stroke-width="0.25" stroke-linecap="round" stroke-linejoin="round"/>
<path d="M36.9178 32.6991C37.3322 32.9251 37.7089 33.2265 38.0479 33.5655C37.7089 33.2265 37.3322 32.9251 36.9178 32.6991Z" fill="#45504B" stroke="#45504B" stroke-width="0.25" stroke-linecap="round" stroke-linejoin="round"/>
<path d="M39.9315 34.2436C39.6678 34.0553 39.4417 33.8669 39.178 33.6785C38.726 33.3018 38.2739 32.9251 37.7089 32.6991V32.7368C38.2739 33.0005 38.7637 33.4148 39.2534 33.7916C39.4794 33.9799 39.7054 34.1683 39.9315 34.319C40.1575 34.4696 40.4212 34.658 40.7226 34.6957C40.7226 34.6957 40.7226 34.658 40.7226 34.6203C40.4589 34.5073 40.1952 34.3943 39.9315 34.2059V34.2436Z" fill="#45504B" stroke="#45504B" stroke-width="0.25" stroke-linecap="round" stroke-linejoin="round"/>
<path d="M40.7226 33.7534C40.4589 33.6404 40.1952 33.4897 39.9315 33.3767V33.4144C40.1952 33.5651 40.4589 33.6781 40.7226 33.8288C40.9863 33.9418 41.2499 34.0925 41.5513 34.2055C41.5513 34.2055 41.5513 34.2055 41.5513 34.1678C41.2876 34.0171 41.0239 33.8664 40.7602 33.7534H40.7226Z" fill="#45504B" stroke="#45504B" stroke-width="0.25" stroke-linecap="round" stroke-linejoin="round"/>
<path d="M33.9417 31.6438C34.2431 31.5684 34.5445 31.5684 34.8082 31.4554V31.3424C34.2431 31.3424 33.7157 31.4931 33.1883 31.6814C32.6986 31.8698 32.1712 32.1335 31.6438 32.1335C31.6438 32.1335 31.6438 32.1712 31.6438 32.2088C32.1712 32.2465 32.6609 32.0582 33.113 31.9075C33.3767 31.7945 33.6404 31.7191 33.9041 31.6438H33.9417Z" fill="#45504B" stroke="#45504B" stroke-width="0.25" stroke-linecap="round" stroke-linejoin="round"/>
<path d="M32.1712 31.7568C32.8493 31.3801 33.565 31.1541 34.3185 30.9657V30.8904C33.9418 30.9281 33.565 31.0411 33.226 31.1541C32.8493 31.3048 32.5102 31.4931 32.1712 31.6815V31.7568Z" fill="#45504B" stroke="#45504B" stroke-width="0.25" stroke-linecap="round" stroke-linejoin="round"/>
<path d="M32.6609 30.8908C33.5274 30.5517 34.2431 29.949 35.0342 29.4216C35.863 28.8565 36.8048 28.4422 37.7842 28.1785C38.1609 28.0654 38.5753 27.9901 38.952 27.8771H38.9897C38.9897 27.8771 39.3288 27.8017 39.5171 27.7641C39.5548 27.7641 39.5548 27.5757 39.5171 27.6134C39.4041 27.6134 39.3288 27.6134 39.2157 27.6511C39.2911 27.538 39.3664 27.425 39.4418 27.312C39.6301 27.086 39.8562 26.8976 40.0822 26.7469C39.8185 26.8223 39.6301 27.0106 39.4418 27.2367C39.3288 27.3874 39.2534 27.538 39.1781 27.6511C38.7637 27.7264 38.387 27.8017 37.9726 27.9148C37.4829 28.0654 36.9931 28.2161 36.5411 28.4422C35.637 28.8189 34.8459 29.4216 34.0548 29.9867C33.6027 30.288 33.1507 30.6271 32.6986 30.8531L32.6609 30.8908Z" fill="#45504B" stroke="#45504B" stroke-width="0.25" stroke-linecap="round" stroke-linejoin="round"/>
<path d="M38.6884 30.9276C39.2158 30.8523 39.7431 30.7393 40.2705 30.7393C40.7979 30.7393 41.2877 30.8146 41.7774 30.89C42.7192 31.0406 43.6986 31.229 44.6027 30.8523C44.6404 30.8523 44.6027 30.7016 44.6027 30.7393C43.661 31.0783 42.6815 30.9653 41.7397 30.8146C41.25 30.7393 40.7603 30.6639 40.2705 30.6639C39.7431 30.6639 39.2534 30.777 38.726 30.89V30.9276H38.6884Z" fill="#45504B" stroke="#45504B" stroke-width="0.25" stroke-linecap="round" stroke-linejoin="round"/>
<path d="M38.0479 28.2153C39.0274 28.3283 40.1198 28.1776 40.9863 27.6879C41.363 27.4619 41.702 27.1605 42.0411 26.8968C42.1917 26.7838 42.3801 26.6708 42.5685 26.5578C42.7568 26.4448 42.9828 26.4448 43.1712 26.3694V26.2941C42.9828 26.2564 42.7568 26.3317 42.6061 26.4071C42.4178 26.4824 42.2671 26.5954 42.0787 26.7085C41.7397 26.9722 41.4383 27.2735 41.0616 27.4996C40.1575 28.027 39.1027 28.2153 38.0856 28.1776L38.0479 28.2153Z" fill="#45504B" stroke="#45504B" stroke-width="0.25" stroke-linecap="round" stroke-linejoin="round"/>
</g>
<defs>
<clipPath id="clip0_595_8039">
<rect width="55" height="55" fill="white"/>
</clipPath>
</defs>
</svg>
