<svg width="118" height="35" viewBox="0 0 118 35" fill="none" xmlns="http://www.w3.org/2000/svg">
<path d="M10.6919 0.0314941H13.6479L7.45289 13.3335H6.19502L0 0.0314941H2.92455L6.82395 8.71081L10.7234 0.0314941H10.6919Z" fill="#45504B"/>
<path d="M22.3587 13.302H19.6542V0H22.3587V13.302Z" fill="#45504B"/>
<path d="M39.6861 2.35856H35.4408V13.302H32.7363V2.35856H28.5225V0.0314941H39.7175V2.35856H39.6861Z" fill="#45504B"/>
<path d="M53.2394 10.6291H47.296L46.101 13.3335H43.2393L49.5916 0.0314941H50.9438L57.296 13.3335H54.4344L53.2394 10.6291ZM48.2708 8.39634H52.296L50.2834 3.99379L48.2708 8.39634Z" fill="#45504B"/>
<path d="M72.7676 11.0378V13.302H63.2393V0H65.9437V11.0378H72.7991H72.7676Z" fill="#45504B"/>
<path d="M81.6361 13.302H78.9316V0H81.6361V13.302Z" fill="#45504B"/>
<path d="M98.9629 2.35856H94.7176V13.302H92.0132V2.35856H87.7993V0.0314941H98.9944V2.35856H98.9629Z" fill="#45504B"/>
<path d="M117.328 0.0314941L112.202 8.80515V13.302H109.498V8.80515L104.403 0.0314941H107.485L110.881 5.8806L114.246 0.0314941H117.328Z" fill="#45504B"/>
<path d="M21.0695 30.6918L23.1765 32.4528C21.8871 33.9937 19.906 34.9685 17.6733 34.9685C13.8053 34.9685 10.6606 31.9182 10.6606 28.176C10.6606 24.4338 13.8053 21.3521 17.6733 21.3521C19.906 21.3521 21.8557 22.3584 23.1765 23.8992L21.0695 25.6603C20.3148 24.5911 19.0569 23.8992 17.6733 23.8992C15.3462 23.8992 13.4594 25.5974 13.4594 28.1446C13.4594 30.6918 15.3777 32.3899 17.6733 32.3899C19.0569 32.3899 20.3148 31.6981 21.0695 30.6289V30.6918Z" fill="#45504B"/>
<path d="M41.0067 21.541L35.8808 30.3147V34.8116H33.1764V30.3147L28.082 21.541H31.1638L34.5601 27.3901L37.9249 21.541H41.0067Z" fill="#45504B"/>
<path d="M55.8181 30.6918L57.925 32.4528C56.6357 33.9937 54.6545 34.9685 52.4218 34.9685C48.5539 34.9685 45.4092 31.9182 45.4092 28.176C45.4092 24.4338 48.5539 21.3521 52.4218 21.3521C54.6545 21.3521 56.6042 22.3584 57.925 23.8992L55.8181 25.6603C55.0633 24.5911 53.8055 23.8992 52.4218 23.8992C50.0948 23.8992 48.2079 25.5974 48.2079 28.1446C48.2079 30.6918 50.1262 32.3899 52.4218 32.3899C53.8055 32.3899 55.0633 31.6981 55.8181 30.6289V30.6918Z" fill="#45504B"/>
<path d="M73.8057 32.5788V34.843H64.2773V21.541H66.9818V32.5788H73.8372H73.8057Z" fill="#45504B"/>
<path d="M90.1267 32.4842V34.8113H79.9379V21.5093H89.7493V23.8363H82.5794V27.2011H88.5858V29.4653H82.5794V32.4528H90.1581L90.1267 32.4842Z" fill="#45504B"/>
<path d="M106.667 30.9119C106.667 33.4905 104.623 35 101.51 35C99.2461 35 98.0825 34.7798 95.9756 33.7421L96.9504 31.6352C98.7115 32.4842 99.9379 32.6415 101.605 32.6415C103.051 32.6415 103.932 32.1069 103.932 31.132C103.932 30.2201 103.051 29.8427 101.101 29.371C98.3655 28.7421 96.1643 27.9873 96.1643 25.3458C96.1643 23.0187 98.0196 21.3521 101.07 21.3521C103.083 21.3521 104.875 21.8552 106.164 22.4212L105.064 24.5596C103.9 24.0565 102.265 23.6791 101.007 23.6791C99.6549 23.6791 98.9001 24.2766 98.9001 25.1257C98.9001 26.0691 99.8435 26.4779 101.856 26.9181C104.718 27.5471 106.699 28.459 106.699 30.9119H106.667Z" fill="#45504B"/>
</svg>
