<svg width="62" height="62" viewBox="0 0 62 62" fill="none" xmlns="http://www.w3.org/2000/svg">
<path d="M54.25 18.0833V15.5C54.25 14.1297 53.7057 12.8156 52.7367 11.8466C51.7678 10.8777 50.4536 10.3333 49.0833 10.3333H41.3333L47.7917 14.2083M54.25 43.9167V46.5C54.25 47.8703 53.7057 49.1845 52.7367 50.1534C51.7678 51.1223 50.4536 51.6667 49.0833 51.6667H41.3333L47.7917 47.7917M23.2526 31H23.25M41.3333 31H54.25M54.25 31L49.0833 25.8333M54.25 31L49.0833 36.1667M11.4313 50.189L26.9312 54.839C27.7028 55.0706 28.5179 55.1186 29.3114 54.9791C30.1048 54.8396 30.8546 54.5165 31.5009 54.0356C32.1473 53.5546 32.6722 52.9293 33.0337 52.2094C33.3953 51.4894 33.5835 50.6949 33.5833 49.8893V12.1107C33.5835 11.3051 33.3953 10.5106 33.0337 9.79066C32.6722 9.07075 32.1473 8.44536 31.5009 7.96445C30.8546 7.48354 30.1048 7.16043 29.3114 7.02093C28.5179 6.88142 27.7028 6.92939 26.9312 7.161L11.4313 11.811C10.367 12.1305 9.43404 12.7846 8.7709 13.6762C8.10777 14.5678 7.74976 15.6495 7.75 16.7607V45.2393C7.74976 46.3505 8.10777 47.4322 8.7709 48.3238C9.43404 49.2155 10.367 49.8695 11.4313 50.189Z" stroke="#FF4040" stroke-width="3" stroke-linecap="round" stroke-linejoin="round"/>
</svg>
