<svg width="50" height="52" viewBox="0 0 50 52" fill="none" xmlns="http://www.w3.org/2000/svg">
<path d="M48.25 13.0833V10.5C48.25 9.12972 47.7057 7.81556 46.7367 6.84662C45.7678 5.87768 44.4536 5.33334 43.0833 5.33334H35.3333L41.7917 9.20834M48.25 38.9167V41.5C48.25 42.8703 47.7057 44.1845 46.7367 45.1534C45.7678 46.1223 44.4536 46.6667 43.0833 46.6667H35.3333L41.7917 42.7917M17.2526 26H17.25M35.3333 26H48.25M48.25 26L43.0833 20.8333M48.25 26L43.0833 31.1667M5.43125 45.189L20.9312 49.839C21.7028 50.0706 22.5179 50.1186 23.3114 49.9791C24.1048 49.8396 24.8546 49.5165 25.5009 49.0356C26.1473 48.5546 26.6722 47.9293 27.0337 47.2094C27.3953 46.4894 27.5835 45.6949 27.5833 44.8893V7.11067C27.5835 6.30506 27.3953 5.51057 27.0337 4.79066C26.6722 4.07075 26.1473 3.44536 25.5009 2.96445C24.8546 2.48354 24.1048 2.16043 23.3114 2.02093C22.5179 1.88142 21.7028 1.92939 20.9312 2.161L5.43125 6.81101C4.36697 7.13047 3.43404 7.78455 2.7709 8.67618C2.10777 9.56781 1.74976 10.6495 1.75 11.7607V40.2393C1.74976 41.3505 2.10777 42.4322 2.7709 43.3238C3.43404 44.2155 4.36697 44.8695 5.43125 45.189Z" stroke="#E8B0B0" stroke-width="3" stroke-linecap="round" stroke-linejoin="round"/>
</svg>
