<svg width="52" height="52" viewBox="0 0 52 52" fill="none" xmlns="http://www.w3.org/2000/svg">
<circle cx="26" cy="26" r="25.5" stroke="#56685F"/>
<path fill-rule="evenodd" clip-rule="evenodd" d="M33.6802 19.3352C33.7468 19.2685 33.7997 19.1894 33.8358 19.1022C33.8719 19.0151 33.8905 18.9217 33.8905 18.8274C33.8905 18.7331 33.8719 18.6397 33.8358 18.5526C33.7997 18.4654 33.7468 18.3863 33.6802 18.3196C33.6135 18.2529 33.5343 18.2 33.4472 18.1639C33.36 18.1278 33.2667 18.1093 33.1723 18.1093C33.078 18.1093 32.9847 18.1278 32.8975 18.1639C32.8104 18.2 32.7312 18.2529 32.6645 18.3196L25.9999 24.9856L19.3353 18.3196C19.2686 18.2529 19.1895 18.2 19.1023 18.1639C19.0152 18.1278 18.9218 18.1093 18.8275 18.1093C18.7332 18.1093 18.6398 18.1278 18.5527 18.1639C18.4656 18.2 18.3864 18.2529 18.3197 18.3196C18.253 18.3863 18.2001 18.4654 18.164 18.5526C18.128 18.6397 18.1094 18.7331 18.1094 18.8274C18.1094 18.9217 18.128 19.0151 18.164 19.1022C18.2001 19.1894 18.253 19.2685 18.3197 19.3352L24.9858 25.9998L18.3197 32.6644C18.185 32.7991 18.1094 32.9818 18.1094 33.1722C18.1094 33.3627 18.185 33.5454 18.3197 33.68C18.4544 33.8147 18.6371 33.8904 18.8275 33.8904C19.018 33.8904 19.2007 33.8147 19.3353 33.68L25.9999 27.014L32.6645 33.68C32.7992 33.8147 32.9819 33.8904 33.1723 33.8904C33.3628 33.8904 33.5455 33.8147 33.6802 33.68C33.8148 33.5454 33.8905 33.3627 33.8905 33.1722C33.8905 32.9818 33.8148 32.7991 33.6802 32.6644L27.0141 25.9998L33.6802 19.3352V19.3352Z" fill="#56685F"/>
</svg>
