<svg width="26" height="26" viewBox="0 0 26 26" fill="none" xmlns="http://www.w3.org/2000/svg">
<path d="M10.8333 3.25C6.64517 3.25 3.25 6.64517 3.25 10.8333C3.25 15.0215 6.64517 18.4167 10.8333 18.4167C12.6111 18.4195 14.3328 17.7949 15.6953 16.653L21.5941 22.5517C21.657 22.6146 21.7316 22.6645 21.8138 22.6985C21.8959 22.7326 21.984 22.7501 22.0729 22.7501C22.1618 22.7501 22.2499 22.7326 22.3321 22.6985C22.4142 22.6645 22.4889 22.6146 22.5517 22.5517C22.6146 22.4889 22.6645 22.4142 22.6985 22.3321C22.7326 22.2499 22.7501 22.1618 22.7501 22.0729C22.7501 21.984 22.7326 21.8959 22.6985 21.8138C22.6645 21.7316 22.6146 21.657 22.5517 21.5941L16.653 15.6953C17.7947 14.3327 18.4193 12.6111 18.4167 10.8333C18.4167 6.64517 15.0215 3.25 10.8333 3.25ZM4.60417 10.8333C4.60417 7.39321 7.39321 4.60417 10.8333 4.60417C14.2735 4.60417 17.0625 7.39321 17.0625 10.8333C17.0625 14.2735 14.2735 17.0625 10.8333 17.0625C7.39321 17.0625 4.60417 14.2735 4.60417 10.8333Z" fill="#3D3D3D"/>
</svg>
