<svg width="41" height="42" viewBox="0 0 41 42" fill="none" xmlns="http://www.w3.org/2000/svg">
<rect x="0.5" y="0.5" width="40" height="41" rx="20" fill="white" fill-opacity="0.5" stroke="#3D3D3D"/>
<path d="M24.6759 17.3334V15.5306C24.6759 14.9688 24.5679 14.4126 24.358 13.8936C24.1482 13.3745 23.8406 12.903 23.4528 12.5057C23.065 12.1085 22.6047 11.7934 22.098 11.5784C21.5914 11.3635 21.0484 11.2528 20.5 11.2528C19.9516 11.2528 19.4086 11.3635 18.9019 11.5784C18.3953 11.7934 17.9349 12.1085 17.5472 12.5057C17.1594 12.903 16.8518 13.3745 16.6419 13.8936C16.4321 14.4126 16.3241 14.9688 16.3241 15.5306V19.8084C16.3241 19.9704 16.3869 20.1259 16.4988 20.2405C16.6107 20.3551 16.7624 20.4195 16.9206 20.4195C17.0788 20.4195 17.2306 20.3551 17.3424 20.2405C17.4543 20.1259 17.5172 19.9704 17.5172 19.8084V18.5556H22.2897V17.3334H17.5172V15.5306C17.5172 14.7202 17.8314 13.943 18.3908 13.37C18.9502 12.797 19.7089 12.475 20.5 12.475C21.2911 12.475 22.0498 12.797 22.6091 13.37C23.1685 13.943 23.4828 14.7202 23.4828 15.5306V19.7778C23.4828 19.9399 23.5456 20.0953 23.6575 20.2099C23.7694 20.3245 23.9211 20.3889 24.0793 20.3889C24.2376 20.3889 24.3893 20.3245 24.5012 20.2099C24.6131 20.0953 24.6759 19.9399 24.6759 19.7778V18.5556H27.6587V29.5556H13.3413V18.5556H15.1309V17.3334H12.1481V29.6106C12.1481 29.9202 12.2682 30.217 12.4819 30.4359C12.6955 30.6548 12.9854 30.7778 13.2876 30.7778H27.7124C28.0146 30.7778 28.3044 30.6548 28.5181 30.4359C28.7318 30.217 28.8518 29.9202 28.8518 29.6106V17.3334H24.6759Z" fill="#3D3D3D"/>
</svg>
