<svg width="52" height="56" viewBox="0 0 52 56" fill="none" xmlns="http://www.w3.org/2000/svg">
<path d="M15.5997 11.2857V5.71429C15.5997 4.7292 15.9649 3.78445 16.6151 3.08789C17.2652 2.39133 18.147 2 19.0664 2H32.933C33.8525 2 34.7342 2.39133 35.3843 3.08789C36.0345 3.78445 36.3997 4.7292 36.3997 5.71429V11.2857M5.19971 16.8272V50.2857C5.19971 51.2708 5.56494 52.2155 6.21507 52.9121C6.8652 53.6087 7.74696 54 8.66637 54H43.333C44.2525 54 45.1342 53.6087 45.7843 52.9121C46.4345 52.2155 46.7997 51.2708 46.7997 50.2857V16.8272" stroke="#FF4040" stroke-width="3.5"/>
<line x1="17.4346" y1="32.2559" x2="17.4346" y2="42.7351" stroke="#FF4040" stroke-width="3" stroke-linecap="round"/>
<line x1="35.0493" y1="32.2559" x2="35.0493" y2="42.7351" stroke="#FF4040" stroke-width="3" stroke-linecap="round"/>
<line x1="25.8232" y1="23.2695" x2="25.8232" y2="42.735" stroke="#FF4040" stroke-width="3" stroke-linecap="round"/>
<line x1="50.25" y1="16.3306" x2="1.75" y2="16.3306" stroke="#FF4040" stroke-width="3.5" stroke-linecap="round"/>
</svg>
